<svg xmlns="http://www.w3.org/2000/svg" xmlns:xlink="http://www.w3.org/1999/xlink" width="40" zoomAndPan="magnify" viewBox="0 0 30 30.000001" height="40" preserveAspectRatio="xMidYMid meet" version="1.0"><defs><clipPath id="126ad53c80"><path d="M 6 3.925781 L 23.917969 3.925781 L 23.917969 13 L 6 13 Z M 6 3.925781 " clip-rule="nonzero"/></clipPath><clipPath id="8eddddcd58"><path d="M 5.773438 9 L 20 9 L 20 21 L 5.773438 21 Z M 5.773438 9 " clip-rule="nonzero"/></clipPath><clipPath id="f24c726007"><path d="M 5.773438 16 L 23.917969 16 L 23.917969 24.972656 L 5.773438 24.972656 Z M 5.773438 16 " clip-rule="nonzero"/></clipPath><clipPath id="5f7e547a40"><path d="M 9 8 L 23.917969 8 L 23.917969 20 L 9 20 Z M 9 8 " clip-rule="nonzero"/></clipPath></defs><g clip-path="url(#126ad53c80)"><path fill="#003d60" d="M 6.386719 8.96875 L 14.882812 3.925781 L 23.773438 9.1875 L 23.8125 12.441406 L 14.738281 7.140625 L 9.0625 10.578125 Z M 6.386719 8.96875 " fill-opacity="1" fill-rule="evenodd"/></g><g clip-path="url(#8eddddcd58)"><path fill="#ffa914" d="M 5.773438 9.847656 L 5.808594 15.179688 L 14.808594 20.371094 L 19.941406 17.445312 L 19.941406 16.019531 L 18.351562 15.214844 L 14.773438 17.191406 L 8.628906 13.644531 L 8.628906 11.636719 Z M 5.773438 9.847656 " fill-opacity="1" fill-rule="evenodd"/></g><g clip-path="url(#f24c726007)"><path fill="#ff6a0c" d="M 20.628906 18.46875 L 23.195312 20.113281 L 14.773438 24.972656 L 5.808594 19.675781 L 5.878906 16.386719 L 14.847656 21.722656 Z M 20.628906 18.46875 " fill-opacity="1" fill-rule="evenodd"/></g><g clip-path="url(#5f7e547a40)"><path fill="#0061a9" d="M 9.820312 11.597656 L 9.710938 12.878906 L 11.339844 13.753906 L 14.738281 11.710938 L 20.953125 15.398438 L 21.136719 17.59375 L 23.917969 19.164062 L 23.738281 13.683594 L 14.992188 8.640625 Z M 9.820312 11.597656 " fill-opacity="1" fill-rule="evenodd"/></g></svg>