<svg xmlns="http://www.w3.org/2000/svg" xmlns:xlink="http://www.w3.org/1999/xlink" width="40" zoomAndPan="magnify" viewBox="0 0 30 30.000001" height="40" preserveAspectRatio="xMidYMid meet" version="1.0"><defs><clipPath id="8c5dd003d2"><path d="M 1.058594 7.546875 L 28.640625 7.546875 L 28.640625 21.335938 L 1.058594 21.335938 Z M 1.058594 7.546875 " clip-rule="nonzero"/></clipPath><clipPath id="580c17c00d"><path d="M 17.539062 9.796875 L 26.613281 9.796875 L 26.613281 18.871094 L 17.539062 18.871094 Z M 17.539062 9.796875 " clip-rule="nonzero"/></clipPath><clipPath id="cd71ab7983"><path d="M 22.078125 9.796875 C 19.570312 9.796875 17.539062 11.828125 17.539062 14.335938 C 17.539062 16.839844 19.570312 18.871094 22.078125 18.871094 C 24.582031 18.871094 26.613281 16.839844 26.613281 14.335938 C 26.613281 11.828125 24.582031 9.796875 22.078125 9.796875 Z M 22.078125 9.796875 " clip-rule="nonzero"/></clipPath><clipPath id="23f6a2d9a2"><path d="M 11 12 L 12.824219 12 L 12.824219 13 L 11 13 Z M 11 12 " clip-rule="nonzero"/></clipPath><clipPath id="a061b73d57"><path d="M 11 14 L 12.824219 14 L 12.824219 16 L 11 16 Z M 11 14 " clip-rule="nonzero"/></clipPath><clipPath id="69c226051f"><path d="M 11 16 L 12.824219 16 L 12.824219 18 L 11 18 Z M 11 16 " clip-rule="nonzero"/></clipPath><clipPath id="b58abd648e"><path d="M 7 18 L 9 18 L 9 19.414062 L 7 19.414062 Z M 7 18 " clip-rule="nonzero"/></clipPath><clipPath id="e5c4e44408"><path d="M 3.386719 14 L 5 14 L 5 16 L 3.386719 16 Z M 3.386719 14 " clip-rule="nonzero"/></clipPath></defs><g clip-path="url(#8c5dd003d2)"><path fill="#545454" d="M 7.957031 21.335938 L 21.746094 21.335938 C 25.546875 21.335938 28.640625 18.242188 28.640625 14.441406 C 28.640625 10.640625 25.546875 7.546875 21.746094 7.546875 L 7.957031 7.546875 C 4.152344 7.546875 1.058594 10.640625 1.058594 14.441406 C 1.058594 18.242188 4.152344 21.335938 7.957031 21.335938 Z M 21.746094 10.5 C 23.921875 10.5 25.6875 12.265625 25.6875 14.441406 C 25.6875 16.617188 23.921875 18.382812 21.746094 18.382812 C 19.570312 18.382812 17.804688 16.617188 17.804688 14.441406 C 17.804688 12.265625 19.570312 10.5 21.746094 10.5 Z M 21.746094 10.5 " fill-opacity="1" fill-rule="nonzero"/></g><g clip-path="url(#580c17c00d)"><g clip-path="url(#cd71ab7983)"><path fill="#000000" d="M 17.539062 9.796875 L 26.613281 9.796875 L 26.613281 18.871094 L 17.539062 18.871094 Z M 17.539062 9.796875 " fill-opacity="1" fill-rule="nonzero"/></g></g><path fill="#eba408" d="M 8.105469 11.253906 L 8.363281 10.617188 C 8.390625 10.546875 8.425781 10.480469 8.425781 10.402344 C 8.425781 9.980469 7.785156 9.980469 7.785156 10.402344 C 7.785156 10.480469 7.816406 10.539062 7.84375 10.609375 Z M 8.105469 11.253906 " fill-opacity="1" fill-rule="nonzero"/><path fill="#eba408" d="M 9.828125 11.714844 L 10.367188 11.292969 C 10.429688 11.246094 10.492188 11.207031 10.53125 11.136719 C 10.742188 10.773438 10.1875 10.453125 9.976562 10.816406 C 9.9375 10.882812 9.933594 10.953125 9.925781 11.027344 Z M 9.828125 11.714844 " fill-opacity="1" fill-rule="nonzero"/><g clip-path="url(#23f6a2d9a2)"><path fill="#eba408" d="M 11.089844 12.976562 L 11.765625 12.878906 C 11.84375 12.867188 11.917969 12.867188 11.984375 12.828125 C 12.351562 12.617188 12.03125 12.0625 11.664062 12.273438 C 11.597656 12.3125 11.5625 12.367188 11.515625 12.429688 Z M 11.089844 12.976562 " fill-opacity="1" fill-rule="nonzero"/></g><g clip-path="url(#a061b73d57)"><path fill="#eba408" d="M 11.550781 14.699219 L 12.183594 14.953125 C 12.257812 14.984375 12.320312 15.019531 12.402344 15.019531 C 12.824219 15.019531 12.824219 14.378906 12.402344 14.378906 C 12.324219 14.378906 12.261719 14.410156 12.195312 14.4375 Z M 11.550781 14.699219 " fill-opacity="1" fill-rule="nonzero"/></g><g clip-path="url(#69c226051f)"><path fill="#eba408" d="M 11.089844 16.421875 L 11.511719 16.960938 C 11.558594 17.019531 11.597656 17.082031 11.664062 17.125 C 12.03125 17.332031 12.351562 16.777344 11.984375 16.570312 C 11.917969 16.527344 11.851562 16.527344 11.777344 16.515625 Z M 11.089844 16.421875 " fill-opacity="1" fill-rule="nonzero"/></g><path fill="#eba408" d="M 9.828125 17.679688 L 9.921875 18.359375 C 9.933594 18.4375 9.9375 18.511719 9.976562 18.578125 C 10.1875 18.945312 10.742188 18.625 10.53125 18.257812 C 10.492188 18.191406 10.433594 18.15625 10.375 18.109375 Z M 9.828125 17.679688 " fill-opacity="1" fill-rule="nonzero"/><g clip-path="url(#b58abd648e)"><path fill="#eba408" d="M 8.105469 18.140625 L 7.847656 18.777344 C 7.820312 18.847656 7.785156 18.914062 7.785156 18.996094 C 7.785156 19.414062 8.425781 19.414062 8.425781 18.996094 C 8.425781 18.914062 8.394531 18.855469 8.363281 18.785156 Z M 8.105469 18.140625 " fill-opacity="1" fill-rule="nonzero"/></g><path fill="#eba408" d="M 6.382812 17.679688 L 5.84375 18.101562 C 5.78125 18.152344 5.71875 18.191406 5.679688 18.257812 C 5.46875 18.625 6.023438 18.945312 6.234375 18.578125 C 6.273438 18.511719 6.273438 18.441406 6.285156 18.367188 Z M 6.382812 17.679688 " fill-opacity="1" fill-rule="nonzero"/><path fill="#eba408" d="M 5.121094 16.421875 L 4.441406 16.515625 C 4.367188 16.527344 4.292969 16.527344 4.222656 16.570312 C 3.859375 16.777344 4.179688 17.332031 4.542969 17.125 C 4.613281 17.082031 4.648438 17.027344 4.695312 16.96875 Z M 5.121094 16.421875 " fill-opacity="1" fill-rule="nonzero"/><g clip-path="url(#e5c4e44408)"><path fill="#eba408" d="M 4.660156 14.699219 L 4.023438 14.441406 C 3.953125 14.410156 3.886719 14.378906 3.808594 14.378906 C 3.386719 14.378906 3.386719 15.019531 3.808594 15.019531 C 3.886719 15.019531 3.945312 14.984375 4.015625 14.957031 Z M 4.660156 14.699219 " fill-opacity="1" fill-rule="nonzero"/></g><path fill="#eba408" d="M 5.121094 12.976562 L 4.699219 12.433594 C 4.652344 12.375 4.613281 12.3125 4.542969 12.273438 C 4.179688 12.0625 3.859375 12.617188 4.222656 12.828125 C 4.292969 12.867188 4.359375 12.867188 4.433594 12.878906 Z M 5.121094 12.976562 " fill-opacity="1" fill-rule="nonzero"/><path fill="#eba408" d="M 6.382812 11.714844 L 6.285156 11.035156 C 6.277344 10.960938 6.273438 10.886719 6.234375 10.816406 C 6.023438 10.453125 5.46875 10.773438 5.679688 11.136719 C 5.71875 11.203125 5.777344 11.238281 5.835938 11.285156 Z M 6.382812 11.714844 " fill-opacity="1" fill-rule="nonzero"/><path fill="#eba408" d="M 11.132812 14.699219 C 11.132812 15.097656 11.054688 15.484375 10.902344 15.855469 C 10.746094 16.226562 10.527344 16.554688 10.246094 16.835938 C 9.960938 17.121094 9.632812 17.339844 9.261719 17.492188 C 8.890625 17.648438 8.507812 17.722656 8.105469 17.722656 C 7.703125 17.722656 7.316406 17.648438 6.945312 17.492188 C 6.574219 17.339844 6.25 17.121094 5.964844 16.835938 C 5.679688 16.554688 5.460938 16.226562 5.308594 15.855469 C 5.15625 15.484375 5.078125 15.097656 5.078125 14.699219 C 5.078125 14.296875 5.15625 13.910156 5.308594 13.539062 C 5.460938 13.167969 5.679688 12.839844 5.964844 12.558594 C 6.25 12.273438 6.574219 12.054688 6.945312 11.902344 C 7.316406 11.746094 7.703125 11.671875 8.105469 11.671875 C 8.507812 11.671875 8.890625 11.746094 9.261719 11.902344 C 9.632812 12.054688 9.960938 12.273438 10.246094 12.558594 C 10.527344 12.839844 10.746094 13.167969 10.902344 13.539062 C 11.054688 13.910156 11.132812 14.296875 11.132812 14.699219 Z M 11.132812 14.699219 " fill-opacity="1" fill-rule="nonzero"/></svg>