<svg xmlns="http://www.w3.org/2000/svg" xmlns:xlink="http://www.w3.org/1999/xlink" width="40" zoomAndPan="magnify" viewBox="0 0 30 30.000001" height="40" preserveAspectRatio="xMidYMid meet" version="1.0"><defs><clipPath id="a2453fc74e"><path d="M 12 8.710938 L 18 8.710938 L 18 18 L 12 18 Z M 12 8.710938 " clip-rule="nonzero"/></clipPath><clipPath id="f0843c7dc6"><path d="M 9.195312 15 L 20.804688 15 L 20.804688 20.324219 L 9.195312 20.324219 Z M 9.195312 15 " clip-rule="nonzero"/></clipPath></defs><g clip-path="url(#a2453fc74e)"><path fill="#ffffff" d="M 15.511719 15.914062 L 15.511719 9.222656 C 15.511719 9.085938 15.460938 8.957031 15.363281 8.859375 C 15.265625 8.765625 15.136719 8.710938 15 8.710938 C 14.863281 8.710938 14.734375 8.765625 14.636719 8.859375 C 14.539062 8.957031 14.488281 9.085938 14.488281 9.222656 L 14.488281 15.914062 C 14.488281 15.914062 13.511719 14.9375 12.96875 14.394531 C 12.871094 14.296875 12.742188 14.246094 12.605469 14.246094 C 12.46875 14.246094 12.339844 14.296875 12.242188 14.394531 C 12.042969 14.59375 12.042969 14.917969 12.242188 15.117188 L 14.65625 17.53125 C 14.75 17.621094 14.871094 17.671875 15 17.671875 C 15.128906 17.671875 15.25 17.621094 15.34375 17.53125 L 17.757812 15.117188 C 17.957031 14.917969 17.957031 14.59375 17.757812 14.394531 C 17.660156 14.296875 17.53125 14.246094 17.394531 14.246094 C 17.257812 14.246094 17.128906 14.296875 17.03125 14.394531 C 16.484375 14.9375 15.511719 15.914062 15.511719 15.914062 Z M 15.511719 15.914062 " fill-opacity="1" fill-rule="evenodd"/></g><g clip-path="url(#f0843c7dc6)"><path fill="#ffffff" d="M 9.195312 19.355469 C 9.195312 19.613281 9.296875 19.859375 9.476562 20.039062 C 9.660156 20.21875 9.90625 20.324219 10.160156 20.324219 L 19.839844 20.324219 C 20.097656 20.324219 20.34375 20.21875 20.523438 20.039062 C 20.703125 19.855469 20.804688 19.609375 20.804688 19.355469 L 20.804688 16.425781 C 20.804688 16.144531 20.578125 15.914062 20.296875 15.914062 C 20.160156 15.914062 20.03125 15.96875 19.933594 16.066406 C 19.835938 16.160156 19.785156 16.292969 19.785156 16.425781 L 19.785156 18.820312 C 19.785156 19.085938 19.566406 19.300781 19.300781 19.300781 L 10.699219 19.300781 C 10.433594 19.300781 10.214844 19.085938 10.214844 18.820312 L 10.214844 16.425781 C 10.214844 16.292969 10.160156 16.160156 10.066406 16.066406 C 9.96875 15.96875 9.839844 15.914062 9.703125 15.914062 C 9.421875 15.914062 9.195312 16.144531 9.195312 16.425781 Z M 9.195312 19.355469 " fill-opacity="1" fill-rule="evenodd"/></g></svg>