<svg xmlns="http://www.w3.org/2000/svg" xmlns:xlink="http://www.w3.org/1999/xlink" width="40" zoomAndPan="magnify" viewBox="0 0 30 30.000001" height="40" preserveAspectRatio="xMidYMid meet" version="1.0"><defs><clipPath id="403253c46e"><path d="M 5 7.417969 L 25 7.417969 L 25 16 L 5 16 Z M 5 7.417969 " clip-rule="nonzero"/></clipPath><clipPath id="553c83a96c"><path d="M 4.730469 9 L 25.054688 9 L 25.054688 21.933594 L 4.730469 21.933594 Z M 4.730469 9 " clip-rule="nonzero"/></clipPath></defs><g clip-path="url(#403253c46e)"><path fill="#ffffff" d="M 14.894531 15.863281 C 15.742188 15.800781 20.308594 11.914062 24.359375 8.089844 C 23.949219 7.675781 23.386719 7.417969 22.769531 7.417969 L 7.015625 7.417969 C 6.378906 7.417969 5.804688 7.6875 5.390625 8.121094 C 9.453125 11.929688 14.042969 15.804688 14.894531 15.863281 " fill-opacity="1" fill-rule="nonzero"/></g><g clip-path="url(#553c83a96c)"><path fill="#ffffff" d="M 20.871094 12.703125 C 16.019531 16.953125 15.230469 16.953125 14.890625 16.953125 C 14.554688 16.953125 13.769531 16.953125 8.914062 12.738281 C 7.214844 11.265625 5.601562 9.78125 4.835938 9.070312 C 4.769531 9.292969 4.730469 9.535156 4.730469 9.785156 L 4.730469 19.574219 C 4.730469 20.878906 5.753906 21.9375 7.015625 21.9375 L 22.765625 21.9375 C 24.027344 21.9375 25.054688 20.878906 25.054688 19.574219 L 25.054688 9.78125 C 25.054688 9.515625 25.007812 9.257812 24.929688 9.019531 C 24.160156 9.742188 22.554688 11.230469 20.871094 12.703125 " fill-opacity="1" fill-rule="nonzero"/></g></svg>