<svg xmlns="http://www.w3.org/2000/svg" xmlns:xlink="http://www.w3.org/1999/xlink" width="40" zoomAndPan="magnify" viewBox="0 0 30 30.000001" height="40" preserveAspectRatio="xMidYMid meet" version="1.0"><defs><clipPath id="d6313992df"><path d="M 9.410156 4.355469 L 20 4.355469 L 20 24.675781 L 9.410156 24.675781 Z M 9.410156 4.355469 " clip-rule="nonzero"/></clipPath></defs><g clip-path="url(#d6313992df)"><path fill="#ffffff" d="M 18.96875 11.46875 L 16.589844 11.46875 L 16.589844 9.433594 C 16.589844 8.386719 16.671875 7.726562 18.136719 7.726562 L 18.996094 7.726562 C 19.542969 7.726562 19.984375 7.269531 19.984375 6.710938 L 19.984375 5.4375 C 19.984375 4.90625 19.589844 4.449219 19.070312 4.414062 C 18.472656 4.375 17.875 4.355469 17.273438 4.355469 C 14.585938 4.355469 12.625 6.039062 12.625 9.128906 L 12.625 11.46875 L 10.644531 11.46875 C 10.097656 11.46875 9.65625 11.921875 9.65625 12.484375 L 9.65625 14.515625 C 9.65625 15.078125 10.097656 15.53125 10.644531 15.53125 L 12.625 15.53125 L 12.625 23.660156 C 12.625 24.222656 13.070312 24.675781 13.617188 24.675781 L 15.597656 24.675781 C 16.144531 24.675781 16.589844 24.222656 16.589844 23.660156 L 16.589844 15.527344 L 18.742188 15.527344 C 19.242188 15.527344 19.667969 15.140625 19.722656 14.628906 L 19.949219 12.601562 C 20.019531 11.996094 19.558594 11.46875 18.96875 11.46875 Z M 18.96875 11.46875 " fill-opacity="1" fill-rule="nonzero"/></g></svg>