<svg xmlns="http://www.w3.org/2000/svg" xmlns:xlink="http://www.w3.org/1999/xlink" width="40" zoomAndPan="magnify" viewBox="0 0 30 30.000001" height="40" preserveAspectRatio="xMidYMid meet" version="1.0"><defs><clipPath id="047d9ba34b"><path d="M 5.910156 5.425781 L 24.054688 5.425781 L 24.054688 23.570312 L 5.910156 23.570312 Z M 5.910156 5.425781 " clip-rule="nonzero"/></clipPath></defs><g clip-path="url(#047d9ba34b)"><path fill="#ffffff" d="M 14.984375 5.425781 C 14.390625 5.425781 13.800781 5.484375 13.214844 5.601562 C 12.632812 5.714844 12.0625 5.890625 11.515625 6.117188 C 10.964844 6.34375 10.441406 6.625 9.945312 6.957031 C 9.449219 7.289062 8.992188 7.664062 8.570312 8.085938 C 8.148438 8.507812 7.773438 8.964844 7.441406 9.460938 C 7.113281 9.957031 6.832031 10.480469 6.605469 11.03125 C 6.378906 11.578125 6.207031 12.148438 6.089844 12.730469 C 5.972656 13.316406 5.914062 13.90625 5.914062 14.5 C 5.914062 15.097656 5.972656 15.6875 6.089844 16.273438 C 6.207031 16.855469 6.378906 17.421875 6.605469 17.972656 C 6.835938 18.523438 7.113281 19.046875 7.445312 19.542969 C 7.777344 20.039062 8.152344 20.496094 8.574219 20.917969 C 8.996094 21.339844 9.453125 21.714844 9.949219 22.042969 C 10.445312 22.375 10.96875 22.65625 11.519531 22.882812 C 12.070312 23.109375 12.636719 23.28125 13.222656 23.398438 C 13.804688 23.515625 14.394531 23.574219 14.992188 23.574219 C 15.585938 23.574219 16.175781 23.515625 16.761719 23.398438 C 17.347656 23.28125 17.914062 23.109375 18.464844 22.882812 C 19.015625 22.652344 19.535156 22.375 20.03125 22.042969 C 20.527344 21.710938 20.984375 21.335938 21.40625 20.914062 C 21.828125 20.492188 22.203125 20.035156 22.535156 19.539062 C 22.867188 19.042969 23.144531 18.519531 23.371094 17.96875 C 23.601562 17.417969 23.773438 16.851562 23.890625 16.265625 C 24.003906 15.683594 24.0625 15.09375 24.0625 14.496094 C 24.0625 13.902344 24.003906 13.3125 23.886719 12.726562 C 23.769531 12.144531 23.59375 11.578125 23.367188 11.027344 C 23.136719 10.476562 22.859375 9.953125 22.527344 9.460938 C 22.195312 8.964844 21.820312 8.507812 21.398438 8.085938 C 20.976562 7.664062 20.519531 7.289062 20.023438 6.957031 C 19.527344 6.628906 19.007812 6.347656 18.457031 6.121094 C 17.90625 5.890625 17.339844 5.71875 16.753906 5.601562 C 16.171875 5.484375 15.582031 5.425781 14.984375 5.425781 Z M 17.492188 22.152344 C 17.097656 22.234375 16.953125 21.992188 16.953125 21.78125 C 16.953125 21.515625 16.964844 20.671875 16.964844 19.617188 C 16.964844 18.886719 16.714844 18.40625 16.433594 18.164062 C 18.179688 17.96875 20.019531 17.300781 20.019531 14.28125 C 20.035156 13.46875 19.765625 12.761719 19.210938 12.167969 C 19.292969 11.96875 19.570312 11.164062 19.136719 10.078125 C 19.136719 10.078125 18.476562 9.863281 16.972656 10.882812 C 15.660156 10.53125 14.351562 10.53125 13.039062 10.882812 C 11.535156 9.878906 10.875 10.078125 10.875 10.078125 C 10.445312 11.160156 10.71875 11.964844 10.800781 12.167969 C 10.25 12.765625 9.984375 13.46875 9.996094 14.28125 C 9.996094 17.289062 11.824219 17.96875 13.574219 18.164062 C 13.347656 18.359375 13.136719 18.703125 13.070312 19.21875 C 12.617188 19.421875 11.488281 19.753906 10.78125 18.570312 C 10.632812 18.332031 10.191406 17.753906 9.574219 17.757812 C 8.914062 17.769531 9.304688 18.136719 9.578125 18.28125 C 9.914062 18.472656 10.296875 19.167969 10.390625 19.390625 C 10.542969 19.839844 11.054688 20.683594 13.027344 20.320312 C 13.027344 20.976562 13.039062 21.597656 13.039062 21.78125 C 13.039062 21.988281 12.894531 22.21875 12.5 22.152344 C 12.210938 22.054688 11.925781 21.9375 11.644531 21.808594 C 11.367188 21.675781 11.097656 21.527344 10.835938 21.367188 C 10.574219 21.203125 10.324219 21.023438 10.085938 20.832031 C 9.84375 20.640625 9.617188 20.433594 9.398438 20.214844 C 9.183594 19.996094 8.980469 19.765625 8.792969 19.519531 C 8.605469 19.277344 8.429688 19.023438 8.269531 18.761719 C 8.113281 18.496094 7.96875 18.226562 7.839844 17.945312 C 7.714844 17.664062 7.605469 17.378906 7.511719 17.085938 C 7.417969 16.792969 7.34375 16.492188 7.285156 16.191406 C 7.226562 15.890625 7.183594 15.585938 7.164062 15.277344 C 7.140625 14.96875 7.136719 14.664062 7.148438 14.355469 C 7.164062 14.046875 7.195312 13.742188 7.242188 13.4375 C 7.292969 13.132812 7.359375 12.835938 7.445312 12.539062 C 7.53125 12.242188 7.632812 11.953125 7.75 11.667969 C 7.871094 11.386719 8.003906 11.109375 8.15625 10.839844 C 8.308594 10.574219 8.472656 10.3125 8.65625 10.066406 C 8.835938 9.816406 9.03125 9.582031 9.242188 9.355469 C 9.453125 9.128906 9.675781 8.917969 9.910156 8.71875 C 10.144531 8.519531 10.386719 8.332031 10.644531 8.164062 C 10.902344 7.992188 11.167969 7.835938 11.441406 7.699219 C 11.714844 7.558594 11.996094 7.4375 12.285156 7.328125 C 12.574219 7.222656 12.867188 7.132812 13.167969 7.0625 C 13.46875 6.992188 13.769531 6.9375 14.074219 6.902344 C 14.382812 6.863281 14.6875 6.847656 14.996094 6.847656 C 15.304688 6.847656 15.609375 6.863281 15.917969 6.902344 C 16.222656 6.9375 16.523438 6.992188 16.824219 7.0625 C 17.125 7.132812 17.417969 7.222656 17.707031 7.328125 C 17.996094 7.4375 18.277344 7.558594 18.550781 7.699219 C 18.828125 7.835938 19.09375 7.992188 19.347656 8.164062 C 19.605469 8.332031 19.851562 8.519531 20.085938 8.71875 C 20.320312 8.917969 20.542969 9.128906 20.75 9.355469 C 20.960938 9.582031 21.15625 9.816406 21.335938 10.066406 C 21.519531 10.3125 21.6875 10.574219 21.835938 10.839844 C 21.988281 11.109375 22.125 11.386719 22.242188 11.667969 C 22.359375 11.953125 22.464844 12.242188 22.546875 12.539062 C 22.632812 12.835938 22.699219 13.132812 22.75 13.4375 C 22.800781 13.742188 22.832031 14.046875 22.84375 14.355469 C 22.859375 14.664062 22.851562 14.96875 22.832031 15.277344 C 22.808594 15.585938 22.769531 15.890625 22.710938 16.191406 C 22.652344 16.492188 22.574219 16.792969 22.480469 17.085938 C 22.386719 17.378906 22.277344 17.664062 22.152344 17.945312 C 22.023438 18.226562 21.882812 18.496094 21.722656 18.761719 C 21.5625 19.023438 21.390625 19.277344 21.199219 19.519531 C 21.011719 19.765625 20.808594 19.996094 20.59375 20.214844 C 20.375 20.433594 20.148438 20.640625 19.910156 20.832031 C 19.667969 21.023438 19.417969 21.203125 19.15625 21.367188 C 18.894531 21.527344 18.625 21.675781 18.347656 21.808594 C 18.070312 21.9375 17.785156 22.054688 17.492188 22.152344 Z M 17.492188 22.152344 " fill-opacity="1" fill-rule="evenodd"/></g></svg>