<svg xmlns="http://www.w3.org/2000/svg" xmlns:xlink="http://www.w3.org/1999/xlink" width="40" zoomAndPan="magnify" viewBox="0 0 30 30.000001" height="40" preserveAspectRatio="xMidYMid meet" version="1.0"><defs><clipPath id="b8e9b636d9"><path d="M 9.195312 8.710938 L 20.804688 8.710938 L 20.804688 20.324219 L 9.195312 20.324219 Z M 9.195312 8.710938 " clip-rule="nonzero"/></clipPath></defs><g clip-path="url(#b8e9b636d9)"><path fill="#ffffff" d="M 15.003906 8.710938 C 14.621094 8.710938 14.242188 8.746094 13.871094 8.820312 C 13.496094 8.894531 13.132812 9.007812 12.78125 9.152344 C 12.429688 9.296875 12.09375 9.476562 11.777344 9.6875 C 11.460938 9.902344 11.167969 10.140625 10.898438 10.410156 C 10.628906 10.679688 10.386719 10.976562 10.175781 11.292969 C 9.964844 11.609375 9.785156 11.945312 9.640625 12.296875 C 9.492188 12.648438 9.382812 13.011719 9.308594 13.386719 C 9.234375 13.757812 9.199219 14.136719 9.199219 14.519531 C 9.199219 14.898438 9.234375 15.277344 9.308594 15.652344 C 9.382812 16.023438 9.496094 16.386719 9.640625 16.742188 C 9.785156 17.09375 9.964844 17.425781 10.175781 17.746094 C 10.390625 18.0625 10.628906 18.355469 10.898438 18.625 C 11.167969 18.894531 11.460938 19.132812 11.78125 19.347656 C 12.097656 19.558594 12.429688 19.738281 12.785156 19.882812 C 13.136719 20.027344 13.5 20.136719 13.875 20.210938 C 14.246094 20.285156 14.625 20.324219 15.007812 20.324219 C 15.386719 20.324219 15.765625 20.285156 16.140625 20.210938 C 16.511719 20.136719 16.875 20.027344 17.226562 19.882812 C 17.582031 19.734375 17.914062 19.554688 18.230469 19.34375 C 18.550781 19.132812 18.84375 18.890625 19.113281 18.621094 C 19.382812 18.351562 19.621094 18.058594 19.832031 17.742188 C 20.046875 17.425781 20.222656 17.089844 20.371094 16.738281 C 20.515625 16.386719 20.625 16.023438 20.699219 15.648438 C 20.773438 15.273438 20.8125 14.898438 20.8125 14.515625 C 20.8125 14.132812 20.773438 13.757812 20.699219 13.382812 C 20.625 13.007812 20.511719 12.648438 20.367188 12.292969 C 20.21875 11.941406 20.039062 11.609375 19.828125 11.292969 C 19.617188 10.976562 19.375 10.683594 19.105469 10.414062 C 18.835938 10.144531 18.542969 9.902344 18.226562 9.691406 C 17.910156 9.480469 17.574219 9.300781 17.222656 9.152344 C 16.871094 9.007812 16.507812 8.898438 16.136719 8.824219 C 15.761719 8.746094 15.382812 8.710938 15.003906 8.710938 Z M 16.605469 19.414062 C 16.355469 19.464844 16.261719 19.3125 16.261719 19.179688 C 16.261719 19.007812 16.269531 18.464844 16.269531 17.792969 C 16.269531 17.324219 16.109375 17.019531 15.929688 16.863281 C 17.046875 16.738281 18.226562 16.3125 18.226562 14.375 C 18.234375 13.855469 18.058594 13.40625 17.707031 13.023438 C 17.757812 12.898438 17.9375 12.382812 17.65625 11.6875 C 17.65625 11.6875 17.234375 11.550781 16.273438 12.203125 C 15.433594 11.976562 14.597656 11.976562 13.757812 12.203125 C 12.792969 11.558594 12.371094 11.6875 12.371094 11.6875 C 12.097656 12.378906 12.273438 12.894531 12.324219 13.023438 C 11.972656 13.40625 11.800781 13.859375 11.808594 14.375 C 11.808594 16.304688 12.980469 16.738281 14.097656 16.863281 C 13.953125 16.988281 13.820312 17.207031 13.777344 17.535156 C 13.488281 17.667969 12.765625 17.882812 12.3125 17.121094 C 12.214844 16.96875 11.933594 16.597656 11.539062 16.601562 C 11.117188 16.609375 11.367188 16.84375 11.542969 16.9375 C 11.757812 17.058594 12 17.503906 12.0625 17.648438 C 12.160156 17.933594 12.484375 18.472656 13.75 18.242188 C 13.75 18.664062 13.757812 19.058594 13.757812 19.175781 C 13.757812 19.308594 13.664062 19.457031 13.414062 19.414062 C 13.039062 19.289062 12.683594 19.121094 12.347656 18.910156 C 12.011719 18.703125 11.707031 18.457031 11.425781 18.175781 C 11.148438 17.894531 10.910156 17.582031 10.703125 17.246094 C 10.5 16.90625 10.339844 16.546875 10.21875 16.171875 C 10.097656 15.792969 10.023438 15.410156 9.996094 15.015625 C 9.964844 14.621094 9.984375 14.226562 10.046875 13.835938 C 10.109375 13.449219 10.21875 13.070312 10.371094 12.707031 C 10.523438 12.339844 10.71875 12 10.949219 11.679688 C 11.183594 11.359375 11.453125 11.074219 11.753906 10.816406 C 12.054688 10.558594 12.382812 10.34375 12.734375 10.164062 C 13.085938 9.984375 13.453125 9.847656 13.839844 9.757812 C 14.222656 9.664062 14.613281 9.621094 15.007812 9.621094 C 15.40625 9.621094 15.792969 9.664062 16.179688 9.757812 C 16.5625 9.847656 16.933594 9.984375 17.285156 10.164062 C 17.636719 10.34375 17.964844 10.558594 18.265625 10.816406 C 18.566406 11.074219 18.835938 11.359375 19.066406 11.679688 C 19.300781 12 19.492188 12.339844 19.648438 12.707031 C 19.800781 13.070312 19.90625 13.449219 19.972656 13.835938 C 20.035156 14.226562 20.050781 14.621094 20.023438 15.015625 C 19.996094 15.410156 19.917969 15.792969 19.800781 16.171875 C 19.679688 16.546875 19.519531 16.90625 19.3125 17.246094 C 19.109375 17.582031 18.867188 17.894531 18.589844 18.175781 C 18.3125 18.457031 18.007812 18.703125 17.671875 18.910156 C 17.335938 19.121094 16.980469 19.289062 16.605469 19.414062 Z M 16.605469 19.414062 " fill-opacity="1" fill-rule="evenodd"/></g></svg>