<svg xmlns="http://www.w3.org/2000/svg" xmlns:xlink="http://www.w3.org/1999/xlink" width="40" zoomAndPan="magnify" viewBox="0 0 30 30.000001" height="40" preserveAspectRatio="xMidYMid meet" version="1.0"><defs><clipPath id="8f3ee69e83"><path d="M 9.195312 9.238281 L 20.804688 9.238281 L 20.804688 15 L 9.195312 15 Z M 9.195312 9.238281 " clip-rule="nonzero"/></clipPath><clipPath id="b1d150c052"><path d="M 10 11 L 20 11 L 20 20.125 L 10 20.125 Z M 10 11 " clip-rule="nonzero"/></clipPath></defs><g clip-path="url(#8f3ee69e83)"><path fill="#ffffff" d="M 20.316406 13.0625 L 18.53125 11.707031 L 18.53125 10.089844 C 18.53125 9.835938 18.332031 9.628906 18.085938 9.628906 L 17.363281 9.628906 C 17.117188 9.628906 16.917969 9.835938 16.917969 10.089844 L 16.917969 10.480469 L 15.554688 9.449219 C 15.257812 9.222656 14.777344 9.222656 14.480469 9.449219 L 9.71875 13.0625 C 9.421875 13.289062 9.359375 13.722656 9.578125 14.027344 L 9.707031 14.210938 C 9.925781 14.515625 10.347656 14.582031 10.640625 14.359375 L 14.480469 11.441406 C 14.777344 11.21875 15.257812 11.21875 15.554688 11.441406 L 19.394531 14.359375 C 19.6875 14.582031 20.109375 14.515625 20.324219 14.210938 L 20.457031 14.027344 C 20.675781 13.722656 20.609375 13.289062 20.316406 13.0625 Z M 20.316406 13.0625 " fill-opacity="1" fill-rule="nonzero"/></g><g clip-path="url(#b1d150c052)"><path fill="#ffffff" d="M 18.890625 14.613281 L 15.554688 12.066406 C 15.257812 11.839844 14.777344 11.839844 14.480469 12.066406 L 11.144531 14.613281 C 10.847656 14.835938 10.605469 15.167969 10.605469 15.34375 L 10.605469 19.039062 C 10.605469 19.636719 11.105469 20.121094 11.71875 20.121094 L 13.757812 20.121094 L 13.757812 16.855469 C 13.757812 16.605469 13.957031 16.398438 14.203125 16.398438 L 15.832031 16.398438 C 16.078125 16.398438 16.277344 16.605469 16.277344 16.855469 L 16.277344 20.121094 L 18.316406 20.121094 C 18.929688 20.121094 19.425781 19.636719 19.425781 19.039062 L 19.425781 15.34375 C 19.425781 15.167969 19.1875 14.835938 18.890625 14.613281 Z M 18.890625 14.613281 " fill-opacity="1" fill-rule="nonzero"/></g></svg>