<svg xmlns="http://www.w3.org/2000/svg" xmlns:xlink="http://www.w3.org/1999/xlink" width="40" zoomAndPan="magnify" viewBox="0 0 30 30.000001" height="40" preserveAspectRatio="xMidYMid meet" version="1.0"><defs><clipPath id="6b9a232297"><path d="M 6.945312 6.460938 L 22.910156 6.460938 L 22.910156 22.425781 L 6.945312 22.425781 Z M 6.945312 6.460938 " clip-rule="nonzero"/></clipPath></defs><g clip-path="url(#6b9a232297)"><path fill="#ffffff" d="M 11.636719 6.460938 C 9.0625 6.460938 6.945312 8.574219 6.945312 11.15625 L 6.945312 17.730469 C 6.945312 20.308594 9.058594 22.425781 11.636719 22.425781 L 18.214844 22.425781 C 20.792969 22.425781 22.910156 20.3125 22.910156 17.730469 L 22.910156 11.15625 C 22.910156 8.578125 20.796875 6.460938 18.214844 6.460938 Z M 11.636719 7.910156 L 18.214844 7.910156 C 20.011719 7.910156 21.460938 9.359375 21.460938 11.15625 L 21.460938 17.730469 C 21.460938 19.527344 20.011719 20.976562 18.214844 20.976562 L 11.636719 20.976562 C 9.84375 20.976562 8.394531 19.527344 8.394531 17.730469 L 8.394531 11.15625 C 8.394531 9.359375 9.84375 7.910156 11.636719 7.910156 Z M 19.214844 9.5 C 18.847656 9.5 18.554688 9.792969 18.554688 10.15625 C 18.554688 10.523438 18.847656 10.816406 19.214844 10.816406 C 19.578125 10.816406 19.871094 10.523438 19.871094 10.15625 C 19.871094 9.792969 19.578125 9.5 19.214844 9.5 Z M 14.925781 10.089844 C 12.53125 10.089844 10.574219 12.046875 10.574219 14.445312 C 10.574219 16.839844 12.53125 18.796875 14.925781 18.796875 C 17.324219 18.796875 19.28125 16.839844 19.28125 14.445312 C 19.28125 12.046875 17.324219 10.089844 14.925781 10.089844 Z M 14.925781 11.539062 C 16.539062 11.539062 17.832031 12.832031 17.832031 14.445312 C 17.832031 16.058594 16.539062 17.347656 14.925781 17.347656 C 13.3125 17.347656 12.023438 16.058594 12.023438 14.445312 C 12.023438 12.832031 13.3125 11.539062 14.925781 11.539062 Z M 14.925781 11.539062 " fill-opacity="1" fill-rule="nonzero"/></g></svg>