<svg xmlns="http://www.w3.org/2000/svg" xmlns:xlink="http://www.w3.org/1999/xlink" width="40" zoomAndPan="magnify" viewBox="0 0 30 30.000001" height="40" preserveAspectRatio="xMidYMid meet" version="1.0"><defs><clipPath id="79a3309650"><path d="M 4.148438 3.664062 L 25.921875 3.664062 L 25.921875 25.441406 L 4.148438 25.441406 Z M 4.148438 3.664062 " clip-rule="nonzero"/></clipPath></defs><g clip-path="url(#79a3309650)"><path fill="#ffffff" d="M 25.199219 24.351562 C 25.199219 24.550781 25.035156 24.714844 24.835938 24.714844 L 16.851562 24.714844 C 16.652344 24.714844 16.488281 24.550781 16.488281 24.351562 L 16.488281 18.542969 C 16.488281 18.34375 16.652344 18.179688 16.851562 18.179688 L 18.664062 18.179688 C 18.863281 18.179688 19.027344 18.019531 19.027344 17.820312 L 19.027344 16.65625 L 21.375 18.128906 C 21.433594 18.164062 21.5 18.179688 21.570312 18.179688 L 24.835938 18.179688 C 25.035156 18.179688 25.199219 18.34375 25.199219 18.542969 Z M 15.398438 17.46875 L 15.398438 14.914062 L 19.746094 14.914062 C 19.734375 15.34375 19.707031 15.773438 19.652344 16.191406 L 18.859375 15.695312 C 18.746094 15.628906 18.605469 15.621094 18.492188 15.6875 C 18.375 15.75 18.300781 15.875 18.300781 16.003906 L 18.300781 17.457031 L 16.851562 17.457031 C 16.714844 17.457031 16.585938 17.484375 16.460938 17.527344 C 16.105469 17.496094 15.746094 17.472656 15.398438 17.46875 Z M 15.761719 18.542969 L 15.761719 22.5 C 15.640625 22.511719 15.519531 22.519531 15.398438 22.523438 L 15.398438 18.191406 C 15.539062 18.195312 15.679688 18.199219 15.820312 18.207031 C 15.789062 18.3125 15.761719 18.425781 15.761719 18.542969 Z M 15.398438 11.640625 C 16.746094 11.605469 18.058594 11.382812 19.238281 10.976562 C 19.539062 11.976562 19.710938 13.066406 19.738281 14.191406 L 15.398438 14.191406 Z M 15.398438 6.59375 C 16.863281 6.792969 18.21875 8.171875 19.015625 10.285156 C 17.90625 10.664062 16.671875 10.878906 15.398438 10.917969 Z M 21.039062 9.292969 C 20.636719 9.570312 20.1875 9.8125 19.691406 10.023438 C 19.226562 8.792969 18.601562 7.792969 17.851562 7.082031 C 19.066406 7.535156 20.164062 8.292969 21.039062 9.292969 Z M 23 14.914062 C 22.960938 15.792969 22.785156 16.644531 22.464844 17.457031 L 21.671875 17.457031 L 20.324219 16.613281 C 20.40625 16.054688 20.457031 15.484375 20.472656 14.914062 Z M 21.484375 9.863281 C 22.414062 11.132812 22.9375 12.613281 23.007812 14.191406 L 20.472656 14.191406 C 20.441406 12.980469 20.253906 11.789062 19.925781 10.710938 C 20.5 10.46875 21.019531 10.1875 21.484375 9.863281 Z M 14.671875 10.910156 C 14.53125 10.910156 14.394531 10.90625 14.253906 10.898438 C 14.285156 10.792969 14.308594 10.679688 14.308594 10.558594 L 14.308594 6.605469 C 14.429688 6.59375 14.554688 6.585938 14.671875 6.578125 Z M 14.671875 14.191406 L 10.324219 14.191406 C 10.335938 13.757812 10.371094 13.332031 10.421875 12.914062 L 11.214844 13.410156 C 11.273438 13.445312 11.34375 13.464844 11.40625 13.464844 C 11.46875 13.464844 11.527344 13.449219 11.582031 13.417969 C 11.699219 13.355469 11.769531 13.230469 11.769531 13.101562 L 11.769531 11.648438 L 13.222656 11.648438 C 13.359375 11.648438 13.488281 11.621094 13.609375 11.578125 C 13.96875 11.609375 14.320312 11.628906 14.671875 11.636719 Z M 14.671875 17.460938 C 13.328125 17.5 12.011719 17.722656 10.832031 18.128906 C 10.535156 17.128906 10.363281 16.035156 10.332031 14.914062 L 14.671875 14.914062 Z M 14.671875 22.511719 C 13.207031 22.3125 11.855469 20.933594 11.058594 18.820312 C 12.164062 18.441406 13.398438 18.226562 14.671875 18.1875 Z M 9.035156 19.808594 C 9.4375 19.535156 9.886719 19.292969 10.378906 19.082031 C 10.84375 20.3125 11.472656 21.308594 12.21875 22.023438 C 11.003906 21.566406 9.910156 20.8125 9.035156 19.808594 Z M 8.585938 19.242188 C 7.65625 17.96875 7.136719 16.492188 7.066406 14.914062 L 9.601562 14.914062 C 9.632812 16.125 9.816406 17.3125 10.148438 18.394531 C 9.574219 18.636719 9.050781 18.917969 8.585938 19.242188 Z M 9.75 12.496094 C 9.664062 13.046875 9.613281 13.617188 9.601562 14.191406 L 7.070312 14.191406 C 7.109375 13.3125 7.285156 12.457031 7.605469 11.648438 L 8.398438 11.648438 Z M 5.238281 10.921875 C 5.039062 10.921875 4.875 10.761719 4.875 10.558594 L 4.875 4.753906 C 4.875 4.554688 5.039062 4.390625 5.238281 4.390625 L 13.222656 4.390625 C 13.421875 4.390625 13.585938 4.554688 13.585938 4.753906 L 13.585938 10.558594 C 13.585938 10.761719 13.421875 10.921875 13.222656 10.921875 L 11.40625 10.921875 C 11.207031 10.921875 11.042969 11.085938 11.042969 11.285156 L 11.042969 12.449219 L 8.695312 10.976562 C 8.640625 10.941406 8.574219 10.921875 8.503906 10.921875 Z M 24.835938 17.457031 L 23.25 17.457031 C 23.578125 16.527344 23.746094 15.554688 23.746094 14.550781 C 23.746094 12.5625 23.09375 10.6875 21.851562 9.136719 C 20.242188 7.101562 17.828125 5.902344 15.226562 5.847656 L 15.035156 5.84375 C 14.796875 5.84375 14.554688 5.855469 14.308594 5.878906 L 14.308594 4.753906 C 14.308594 4.15625 13.820312 3.664062 13.222656 3.664062 L 5.238281 3.664062 C 4.640625 3.664062 4.148438 4.15625 4.148438 4.753906 L 4.148438 10.558594 C 4.148438 11.160156 4.640625 11.648438 5.238281 11.648438 L 6.835938 11.648438 C 6.503906 12.578125 6.328125 13.550781 6.328125 14.550781 C 6.328125 16.542969 6.980469 18.417969 8.21875 19.964844 C 9.832031 22.003906 12.246094 23.203125 14.847656 23.257812 L 15.035156 23.261719 C 15.277344 23.261719 15.519531 23.246094 15.761719 23.226562 L 15.761719 24.351562 C 15.761719 24.949219 16.25 25.441406 16.851562 25.441406 L 24.835938 25.441406 C 25.433594 25.441406 25.921875 24.949219 25.921875 24.351562 L 25.921875 18.542969 C 25.921875 17.945312 25.433594 17.457031 24.835938 17.457031 " fill-opacity="1" fill-rule="nonzero"/></g><path fill="#ffffff" d="M 9.136719 6.207031 L 9.324219 6.207031 L 9.867188 8.019531 L 8.59375 8.019531 Z M 10.085938 8.746094 L 10.335938 9.574219 C 10.382812 9.734375 10.527344 9.835938 10.679688 9.835938 C 10.714844 9.835938 10.75 9.828125 10.785156 9.820312 C 10.976562 9.761719 11.085938 9.558594 11.027344 9.367188 L 9.941406 5.738281 C 9.894531 5.585938 9.753906 5.480469 9.59375 5.480469 L 8.867188 5.480469 C 8.707031 5.480469 8.566406 5.585938 8.519531 5.738281 L 7.429688 9.367188 C 7.371094 9.558594 7.480469 9.761719 7.675781 9.820312 C 7.867188 9.878906 8.070312 9.769531 8.125 9.574219 L 8.375 8.746094 L 10.085938 8.746094 " fill-opacity="1" fill-rule="nonzero"/><path fill="#ffffff" d="M 20.84375 21.78125 C 20.550781 21.464844 20.300781 21.109375 20.117188 20.722656 L 21.570312 20.722656 C 21.382812 21.109375 21.136719 21.464844 20.84375 21.78125 Z M 23.019531 19.996094 L 21.207031 19.996094 L 21.207031 19.632812 C 21.207031 19.433594 21.042969 19.269531 20.84375 19.269531 C 20.644531 19.269531 20.480469 19.433594 20.480469 19.632812 L 20.480469 19.996094 L 18.664062 19.996094 C 18.464844 19.996094 18.300781 20.160156 18.300781 20.359375 C 18.300781 20.558594 18.464844 20.722656 18.664062 20.722656 L 19.332031 20.722656 C 19.558594 21.292969 19.890625 21.820312 20.308594 22.269531 C 20.160156 22.386719 20.003906 22.496094 19.835938 22.589844 L 19.210938 22.949219 C 19.039062 23.046875 18.976562 23.269531 19.078125 23.441406 C 19.144531 23.558594 19.265625 23.625 19.390625 23.625 C 19.453125 23.625 19.515625 23.609375 19.570312 23.578125 L 20.195312 23.222656 C 20.429688 23.085938 20.640625 22.933594 20.84375 22.773438 C 21.046875 22.933594 21.257812 23.085938 21.492188 23.222656 L 22.113281 23.578125 C 22.171875 23.609375 22.234375 23.625 22.292969 23.625 C 22.421875 23.625 22.542969 23.558594 22.609375 23.441406 C 22.710938 23.269531 22.648438 23.046875 22.472656 22.949219 L 21.851562 22.59375 C 21.683594 22.496094 21.527344 22.386719 21.378906 22.269531 C 21.796875 21.820312 22.125 21.292969 22.351562 20.722656 L 23.019531 20.722656 C 23.21875 20.722656 23.382812 20.558594 23.382812 20.359375 C 23.382812 20.160156 23.21875 19.996094 23.019531 19.996094 " fill-opacity="1" fill-rule="nonzero"/></svg>