<svg xmlns="http://www.w3.org/2000/svg" xmlns:xlink="http://www.w3.org/1999/xlink" width="40" zoomAndPan="magnify" viewBox="0 0 30 30.000001" height="40" preserveAspectRatio="xMidYMid meet" version="1.0"><defs><clipPath id="c902e4e994"><path d="M 7.160156 6.675781 L 23.128906 6.675781 L 23.128906 22.644531 L 7.160156 22.644531 Z M 7.160156 6.675781 " clip-rule="nonzero"/></clipPath></defs><g clip-path="url(#c902e4e994)"><path fill="#ffffff" d="M 19.859375 6.675781 L 10.429688 6.675781 C 8.628906 6.675781 7.160156 8.144531 7.160156 9.945312 L 7.160156 19.375 C 7.160156 21.179688 8.628906 22.644531 10.429688 22.644531 L 19.859375 22.644531 C 21.664062 22.644531 23.128906 21.179688 23.128906 19.375 L 23.128906 9.945312 C 23.128906 8.144531 21.664062 6.675781 19.859375 6.675781 Z M 22.191406 19.375 C 22.191406 20.660156 21.144531 21.707031 19.859375 21.707031 L 10.429688 21.707031 C 9.144531 21.707031 8.101562 20.660156 8.101562 19.375 L 8.101562 9.945312 C 8.101562 8.660156 9.144531 7.617188 10.429688 7.617188 L 19.859375 7.617188 C 21.144531 7.617188 22.191406 8.660156 22.191406 9.945312 Z M 22.191406 19.375 " fill-opacity="1" fill-rule="nonzero"/></g><path fill="#ffffff" d="M 12.015625 13.019531 L 10.136719 13.019531 C 9.875 13.019531 9.667969 13.230469 9.667969 13.492188 L 9.667969 19.613281 C 9.667969 19.871094 9.875 20.082031 10.136719 20.082031 L 12.015625 20.082031 C 12.273438 20.082031 12.484375 19.871094 12.484375 19.613281 L 12.484375 13.492188 C 12.484375 13.230469 12.273438 13.019531 12.015625 13.019531 Z M 12.015625 13.019531 " fill-opacity="1" fill-rule="nonzero"/><path fill="#ffffff" d="M 17.023438 13.773438 C 16.757812 13.773438 16.496094 13.800781 16.242188 13.859375 L 16.242188 13.492188 C 16.242188 13.230469 16.03125 13.019531 15.769531 13.019531 L 13.894531 13.019531 C 13.632812 13.019531 13.421875 13.230469 13.421875 13.492188 L 13.421875 19.613281 C 13.421875 19.871094 13.632812 20.082031 13.894531 20.082031 L 15.769531 20.082031 C 16.03125 20.082031 16.242188 19.871094 16.242188 19.613281 L 16.242188 17.375 C 16.242188 16.941406 16.59375 16.589844 17.023438 16.589844 C 17.457031 16.589844 17.804688 16.941406 17.804688 17.375 L 17.804688 19.613281 C 17.804688 19.871094 18.015625 20.082031 18.277344 20.082031 L 20.15625 20.082031 C 20.414062 20.082031 20.625 19.871094 20.625 19.613281 L 20.625 17.375 C 20.625 15.386719 19.007812 13.773438 17.023438 13.773438 Z M 17.023438 13.773438 " fill-opacity="1" fill-rule="nonzero"/><path fill="#ffffff" d="M 11.074219 9.242188 C 10.296875 9.242188 9.667969 9.875 9.667969 10.648438 C 9.667969 11.425781 10.296875 12.058594 11.074219 12.058594 C 11.851562 12.058594 12.484375 11.425781 12.484375 10.648438 C 12.484375 9.875 11.851562 9.242188 11.074219 9.242188 Z M 11.074219 9.242188 " fill-opacity="1" fill-rule="nonzero"/></svg>