<svg xmlns="http://www.w3.org/2000/svg" xmlns:xlink="http://www.w3.org/1999/xlink" width="40" zoomAndPan="magnify" viewBox="0 0 30 30.000001" height="40" preserveAspectRatio="xMidYMid meet" version="1.0"><defs><clipPath id="d198ff3dcd"><path d="M 9.195312 10.453125 L 20.804688 10.453125 L 20.804688 18.433594 L 9.195312 18.433594 Z M 9.195312 10.453125 " clip-rule="nonzero"/></clipPath></defs><path fill="#ffffff" d="M 15.027344 12.617188 C 14 12.617188 13.167969 13.433594 13.167969 14.445312 C 13.167969 15.453125 14 16.273438 15.027344 16.273438 C 16.054688 16.273438 16.886719 15.453125 16.886719 14.445312 C 16.886719 13.433594 16.054688 12.617188 15.027344 12.617188 Z M 15.027344 12.617188 " fill-opacity="1" fill-rule="nonzero"/><path fill="#ffffff" d="M 13.101562 11.890625 C 13.273438 12.054688 13.277344 12.320312 13.113281 12.488281 C 12.042969 13.566406 12.042969 15.320312 13.113281 16.398438 C 13.277344 16.566406 13.273438 16.832031 13.101562 16.996094 C 12.933594 17.160156 12.660156 17.15625 12.496094 16.988281 C 11.105469 15.582031 11.105469 13.304688 12.496094 11.898438 C 12.660156 11.734375 12.933594 11.730469 13.101562 11.890625 Z M 16.953125 11.890625 C 17.125 11.730469 17.394531 11.734375 17.5625 11.898438 C 18.953125 13.304688 18.953125 15.582031 17.5625 16.988281 C 17.394531 17.15625 17.125 17.160156 16.953125 16.996094 C 16.785156 16.832031 16.78125 16.566406 16.945312 16.398438 C 18.011719 15.320312 18.011719 13.566406 16.945312 12.488281 C 16.78125 12.320312 16.785156 12.054688 16.953125 11.890625 Z M 16.953125 11.890625 " fill-opacity="1" fill-rule="evenodd"/><g clip-path="url(#d198ff3dcd)"><path fill="#ffffff" d="M 11.894531 10.769531 C 12.0625 10.933594 12.0625 11.203125 11.894531 11.367188 C 10.164062 13.066406 10.164062 15.820312 11.894531 17.519531 C 12.0625 17.683594 12.0625 17.953125 11.894531 18.117188 C 11.726562 18.28125 11.453125 18.28125 11.289062 18.117188 C 9.21875 16.089844 9.21875 12.796875 11.289062 10.769531 C 11.453125 10.605469 11.726562 10.605469 11.894531 10.769531 Z M 18.164062 10.769531 C 18.332031 10.605469 18.601562 10.605469 18.769531 10.769531 C 20.835938 12.796875 20.835938 16.089844 18.769531 18.117188 C 18.601562 18.28125 18.332031 18.28125 18.164062 18.117188 C 17.996094 17.953125 17.996094 17.683594 18.164062 17.519531 C 19.894531 15.820312 19.894531 13.066406 18.164062 11.367188 C 17.996094 11.203125 17.996094 10.933594 18.164062 10.769531 Z M 18.164062 10.769531 " fill-opacity="1" fill-rule="evenodd"/></g></svg>