<svg xmlns="http://www.w3.org/2000/svg" xmlns:xlink="http://www.w3.org/1999/xlink" width="40" zoomAndPan="magnify" viewBox="0 0 30 30.000001" height="40" preserveAspectRatio="xMidYMid meet" version="1.0"><defs><clipPath id="00d458f0dd"><path d="M 7.855469 3.628906 L 22.371094 3.628906 L 22.371094 25.402344 L 7.855469 25.402344 Z M 7.855469 3.628906 " clip-rule="nonzero"/></clipPath></defs><g clip-path="url(#00d458f0dd)"><path fill="#ffffff" d="M 17.769531 18.886719 L 20.894531 14.097656 C 22.273438 11.984375 22.367188 9.40625 21.144531 7.203125 C 19.917969 4.996094 17.664062 3.679688 15.113281 3.679688 C 12.5625 3.679688 10.308594 4.996094 9.082031 7.203125 C 7.859375 9.402344 7.953125 11.980469 9.332031 14.097656 L 12.453125 18.882812 C 9.714844 19.363281 7.972656 20.558594 7.972656 22.007812 C 7.976562 23.941406 10.976562 25.351562 15.113281 25.351562 C 19.25 25.351562 22.25 23.941406 22.25 22.007812 C 22.25 20.554688 20.511719 19.359375 17.769531 18.886719 Z M 18.078125 10.0625 C 18.078125 11.667969 16.746094 12.976562 15.113281 12.976562 C 13.480469 12.976562 12.148438 11.667969 12.148438 10.0625 C 12.148438 8.453125 13.480469 7.144531 15.113281 7.144531 C 16.746094 7.144531 18.078125 8.453125 18.078125 10.0625 Z M 14.625 22.210938 C 14.730469 22.375 14.914062 22.472656 15.113281 22.472656 C 15.316406 22.472656 15.5 22.375 15.601562 22.210938 L 16.777344 20.40625 C 19.308594 20.703125 20.578125 21.589844 20.578125 22.007812 C 20.578125 22.515625 18.71875 23.707031 15.113281 23.707031 C 11.507812 23.707031 9.648438 22.515625 9.648438 22.007812 C 9.648438 21.589844 10.917969 20.707031 13.449219 20.40625 Z M 14.625 22.210938 " fill-opacity="1" fill-rule="nonzero"/></g></svg>