<svg xmlns="http://www.w3.org/2000/svg" xmlns:xlink="http://www.w3.org/1999/xlink" width="40" zoomAndPan="magnify" viewBox="0 0 30 30.000001" height="40" preserveAspectRatio="xMidYMid meet" version="1.0"><defs><clipPath id="22e69f893a"><path d="M 11 6.652344 L 21.976562 6.652344 L 21.976562 20 L 11 20 Z M 11 6.652344 " clip-rule="nonzero"/></clipPath><clipPath id="ee066243c3"><path d="M 8.1875 9 L 19 9 L 19 22.617188 L 8.1875 22.617188 Z M 8.1875 9 " clip-rule="nonzero"/></clipPath></defs><g clip-path="url(#22e69f893a)"><path fill="#004a89" d="M 13.476562 9.726562 L 15.082031 8.796875 L 21.976562 12.789062 L 21.976562 10.644531 L 15.082031 6.652344 L 11.441406 8.757812 L 11.441406 10.996094 L 20.125 16.019531 L 20.125 19.699219 L 21.976562 18.625 L 21.976562 14.644531 Z M 13.476562 9.726562 " fill-opacity="1" fill-rule="nonzero"/></g><g clip-path="url(#ee066243c3)"><path fill="#828788" d="M 16.6875 19.542969 L 15.082031 20.472656 L 8.1875 16.480469 L 8.1875 18.625 L 15.082031 22.617188 L 18.722656 20.507812 L 18.722656 18.273438 L 10.039062 13.25 L 10.039062 9.570312 L 8.1875 10.644531 L 8.1875 14.625 Z M 16.6875 19.542969 " fill-opacity="1" fill-rule="nonzero"/></g></svg>