<svg xmlns="http://www.w3.org/2000/svg" xmlns:xlink="http://www.w3.org/1999/xlink" width="40" zoomAndPan="magnify" viewBox="0 0 30 30.000001" height="40" preserveAspectRatio="xMidYMid meet" version="1.0"><defs><clipPath id="60a9a337bc"><path d="M 9.089844 4.5 L 20.703125 4.5 L 20.703125 24.824219 L 9.089844 24.824219 Z M 9.089844 4.5 " clip-rule="nonzero"/></clipPath></defs><g clip-path="url(#60a9a337bc)"><path fill="#ffffff" d="M 10.878906 4.5 C 10.878906 4.5 9.089844 4.5 9.089844 6.347656 L 9.089844 22.976562 C 9.089844 24.824219 10.878906 24.824219 10.878906 24.824219 L 18.917969 24.824219 C 18.917969 24.824219 20.703125 24.824219 20.703125 22.976562 L 20.703125 6.347656 C 20.703125 4.5 18.917969 4.5 18.917969 4.5 Z M 10.074219 6.734375 L 10.074219 21.367188 L 19.71875 21.367188 L 19.71875 6.734375 Z M 14.898438 23.898438 C 15.265625 23.898438 15.566406 23.589844 15.566406 23.207031 C 15.566406 22.824219 15.265625 22.511719 14.898438 22.511719 C 14.527344 22.511719 14.226562 22.824219 14.226562 23.207031 C 14.226562 23.589844 14.527344 23.898438 14.898438 23.898438 Z M 12.863281 5.421875 C 12.753906 5.421875 12.664062 5.511719 12.664062 5.628906 L 12.664062 5.683594 C 12.664062 5.792969 12.753906 5.886719 12.863281 5.886719 L 16.933594 5.886719 C 17.042969 5.886719 17.128906 5.796875 17.128906 5.683594 L 17.128906 5.628906 C 17.128906 5.515625 17.039062 5.421875 16.933594 5.421875 Z M 12.863281 5.421875 " fill-opacity="1" fill-rule="evenodd"/></g></svg>