<svg xmlns="http://www.w3.org/2000/svg" xmlns:xlink="http://www.w3.org/1999/xlink" width="40" zoomAndPan="magnify" viewBox="0 0 30 30.000001" height="40" preserveAspectRatio="xMidYMid meet" version="1.0"><defs><clipPath id="e41a36db3a"><path d="M 7.246094 8.820312 L 22.488281 8.820312 L 22.488281 18 L 7.246094 18 Z M 7.246094 8.820312 " clip-rule="nonzero"/></clipPath><clipPath id="af70829bd6"><path d="M 7.246094 17 L 22 17 L 22 20.433594 L 7.246094 20.433594 Z M 7.246094 17 " clip-rule="nonzero"/></clipPath></defs><g clip-path="url(#e41a36db3a)"><path fill="#ffffff" d="M 21.980469 10.9375 L 18.421875 10.9375 L 18.421875 10.410156 C 18.421875 10.199219 18.382812 10 18.308594 9.804688 C 18.230469 9.613281 18.121094 9.441406 17.976562 9.292969 C 17.832031 9.144531 17.667969 9.03125 17.484375 8.949219 C 17.296875 8.871094 17.101562 8.828125 16.898438 8.828125 L 12.835938 8.828125 C 12.632812 8.828125 12.4375 8.871094 12.253906 8.949219 C 12.066406 9.03125 11.902344 9.144531 11.757812 9.292969 C 11.613281 9.441406 11.503906 9.613281 11.425781 9.804688 C 11.351562 10 11.3125 10.199219 11.3125 10.410156 L 11.3125 10.9375 L 7.753906 10.9375 C 7.613281 10.9375 7.496094 10.988281 7.394531 11.089844 C 7.296875 11.195312 7.246094 11.320312 7.246094 11.464844 L 7.246094 14.625 C 7.246094 14.976562 7.3125 15.3125 7.441406 15.632812 C 7.570312 15.957031 7.753906 16.242188 7.992188 16.488281 C 8.230469 16.734375 8.503906 16.925781 8.816406 17.058594 C 9.125 17.195312 9.449219 17.261719 9.785156 17.261719 L 14.359375 17.261719 L 14.359375 17 C 14.355469 16.851562 14.402344 16.722656 14.503906 16.617188 C 14.601562 16.511719 14.722656 16.457031 14.867188 16.457031 C 15.011719 16.457031 15.132812 16.511719 15.230469 16.617188 C 15.332031 16.722656 15.378906 16.851562 15.375 17 L 15.375 17.261719 L 19.949219 17.261719 C 20.285156 17.261719 20.609375 17.195312 20.917969 17.058594 C 21.230469 16.925781 21.503906 16.734375 21.742188 16.488281 C 21.980469 16.242188 22.164062 15.957031 22.292969 15.632812 C 22.421875 15.3125 22.488281 14.976562 22.488281 14.625 L 22.488281 11.464844 C 22.488281 11.320312 22.4375 11.195312 22.339844 11.089844 C 22.238281 10.988281 22.121094 10.9375 21.980469 10.9375 Z M 12.328125 10.410156 C 12.328125 10.265625 12.375 10.140625 12.476562 10.039062 C 12.574219 9.933594 12.695312 9.882812 12.835938 9.882812 L 16.898438 9.882812 C 17.039062 9.882812 17.160156 9.933594 17.257812 10.039062 C 17.359375 10.140625 17.40625 10.265625 17.40625 10.410156 L 17.40625 10.9375 L 12.328125 10.9375 Z M 12.328125 10.410156 " fill-opacity="1" fill-rule="nonzero"/></g><g clip-path="url(#af70829bd6)"><path fill="#ffffff" d="M 15.375 18.316406 L 15.375 18.578125 C 15.378906 18.726562 15.332031 18.855469 15.230469 18.960938 C 15.132812 19.066406 15.011719 19.121094 14.867188 19.121094 C 14.722656 19.121094 14.601562 19.066406 14.503906 18.960938 C 14.402344 18.855469 14.355469 18.726562 14.359375 18.578125 L 14.359375 18.316406 L 9.785156 18.316406 C 9.042969 18.316406 8.363281 18.09375 7.753906 17.648438 L 7.753906 18.84375 C 7.753906 19.050781 7.792969 19.253906 7.871094 19.449219 C 7.949219 19.640625 8.058594 19.8125 8.203125 19.960938 C 8.34375 20.109375 8.507812 20.222656 8.695312 20.304688 C 8.882812 20.382812 9.078125 20.425781 9.277344 20.425781 L 20.457031 20.425781 C 20.65625 20.425781 20.851562 20.382812 21.039062 20.304688 C 21.226562 20.222656 21.390625 20.109375 21.535156 19.960938 C 21.675781 19.8125 21.785156 19.640625 21.863281 19.449219 C 21.941406 19.253906 21.980469 19.050781 21.980469 18.84375 L 21.980469 17.648438 C 21.371094 18.09375 20.691406 18.316406 19.949219 18.316406 Z M 15.375 18.316406 " fill-opacity="1" fill-rule="nonzero"/></g></svg>