<svg xmlns="http://www.w3.org/2000/svg" xmlns:xlink="http://www.w3.org/1999/xlink" width="40" zoomAndPan="magnify" viewBox="0 0 30 30.000001" height="40" preserveAspectRatio="xMidYMid meet" version="1.0"><defs><clipPath id="796931def4"><path d="M 9.195312 8.710938 L 20.804688 8.710938 L 20.804688 20.324219 L 9.195312 20.324219 Z M 9.195312 8.710938 " clip-rule="nonzero"/></clipPath></defs><g clip-path="url(#796931def4)"><path fill="#ffffff" d="M 20.617188 20.320312 L 9.382812 20.320312 C 9.28125 20.320312 9.199219 20.238281 9.199219 20.136719 L 9.199219 19.089844 C 9.199219 17.339844 10.617188 15.921875 12.367188 15.921875 L 17.636719 15.921875 C 19.382812 15.921875 20.800781 17.339844 20.800781 19.089844 L 20.800781 20.136719 C 20.800781 20.238281 20.71875 20.320312 20.617188 20.320312 Z M 15 15.425781 C 13.148438 15.425781 11.640625 13.917969 11.640625 12.066406 C 11.640625 10.214844 13.148438 8.710938 15 8.710938 C 16.851562 8.710938 18.359375 10.214844 18.359375 12.066406 C 18.359375 13.917969 16.851562 15.425781 15 15.425781 Z M 15 15.425781 " fill-opacity="1" fill-rule="nonzero"/></g></svg>