<svg xmlns="http://www.w3.org/2000/svg" xmlns:xlink="http://www.w3.org/1999/xlink" width="40" zoomAndPan="magnify" viewBox="0 0 30 30.000001" height="40" preserveAspectRatio="xMidYMid meet" version="1.0"><defs><clipPath id="cf7fde8ef8"><path d="M 1.355469 7.695312 L 28.933594 7.695312 L 28.933594 21.484375 L 1.355469 21.484375 Z M 1.355469 7.695312 " clip-rule="nonzero"/></clipPath><clipPath id="5bae2123b0"><path d="M 18 10.207031 L 25.597656 10.207031 L 25.597656 18 L 18 18 Z M 18 10.207031 " clip-rule="nonzero"/></clipPath><clipPath id="74de090627"><path d="M 17.613281 16 L 20 16 L 20 18.914062 L 17.613281 18.914062 Z M 17.613281 16 " clip-rule="nonzero"/></clipPath><clipPath id="ffc37dd37b"><path d="M 18 10.207031 L 20 10.207031 L 20 12 L 18 12 Z M 18 10.207031 " clip-rule="nonzero"/></clipPath><clipPath id="5c939aafc5"><path d="M 21 18 L 22 18 L 22 18.914062 L 21 18.914062 Z M 21 18 " clip-rule="nonzero"/></clipPath><clipPath id="cf8547302c"><path d="M 17.613281 13 L 19 13 L 19 14 L 17.613281 14 Z M 17.613281 13 " clip-rule="nonzero"/></clipPath><clipPath id="b6ed10c2f2"><path d="M 17.613281 11 L 18 11 L 18 12 L 17.613281 12 Z M 17.613281 11 " clip-rule="nonzero"/></clipPath><clipPath id="7ce245ca84"><path d="M 20 10.207031 L 21 10.207031 L 21 11 L 20 11 Z M 20 10.207031 " clip-rule="nonzero"/></clipPath><clipPath id="acdac85a27"><path d="M 25 14 L 25.597656 14 L 25.597656 16 L 25 16 Z M 25 14 " clip-rule="nonzero"/></clipPath></defs><g clip-path="url(#cf7fde8ef8)"><path fill="#d9d9d9" d="M 22.039062 7.695312 L 8.25 7.695312 C 4.449219 7.695312 1.355469 10.785156 1.355469 14.589844 C 1.355469 18.390625 4.449219 21.484375 8.25 21.484375 L 22.039062 21.484375 C 25.84375 21.484375 28.933594 18.390625 28.933594 14.589844 C 28.933594 10.785156 25.84375 7.695312 22.039062 7.695312 Z M 8.25 18.527344 C 6.074219 18.527344 4.308594 16.765625 4.308594 14.589844 C 4.308594 12.410156 6.074219 10.648438 8.25 10.648438 C 10.425781 10.648438 12.191406 12.410156 12.191406 14.589844 C 12.191406 16.765625 10.425781 18.527344 8.25 18.527344 Z M 8.25 18.527344 " fill-opacity="1" fill-rule="nonzero"/></g><g clip-path="url(#5bae2123b0)"><path fill="#1d5445" d="M 22.539062 17.457031 C 20.542969 17.457031 18.734375 15.75 18.804688 13.875 C 18.851562 12.707031 19.4375 11.789062 20.410156 11.109375 C 20.683594 10.917969 21.007812 10.839844 21.347656 10.824219 C 21.433594 10.820312 21.550781 10.78125 21.59375 10.875 C 21.632812 10.960938 21.59375 11.070312 21.53125 11.148438 C 21.175781 11.628906 21.007812 12.179688 20.929688 12.753906 C 20.851562 13.335938 20.855469 13.914062 21.089844 14.472656 C 21.441406 15.292969 22.132812 15.667969 22.972656 15.851562 C 23.625 15.996094 24.257812 15.929688 24.875 15.683594 C 24.976562 15.644531 25.082031 15.574219 25.183594 15.671875 C 25.292969 15.777344 25.242188 15.902344 25.183594 16.007812 C 24.921875 16.460938 24.535156 16.800781 24.078125 17.066406 C 23.605469 17.339844 23.085938 17.457031 22.539062 17.457031 Z M 22.523438 17.265625 C 22.71875 17.265625 22.910156 17.253906 23.101562 17.222656 C 23.894531 17.082031 24.480469 16.640625 24.953125 16.035156 C 24.992188 15.984375 25.054688 15.917969 25.015625 15.859375 C 24.980469 15.8125 24.914062 15.867188 24.863281 15.886719 C 24.257812 16.121094 23.636719 16.164062 22.996094 16.054688 C 21.808594 15.847656 20.996094 15.167969 20.769531 14.070312 C 20.558594 13.042969 20.746094 12.0625 21.292969 11.152344 C 21.316406 11.113281 21.363281 11.058594 21.351562 11.035156 C 21.316406 10.976562 21.253906 11.023438 21.203125 11.027344 C 20.683594 11.082031 20.308594 11.378906 19.964844 11.730469 C 19.382812 12.328125 19.03125 13.035156 19 13.851562 C 18.933594 15.644531 20.613281 17.253906 22.523438 17.265625 Z M 22.523438 17.265625 " fill-opacity="1" fill-rule="nonzero"/></g><g clip-path="url(#74de090627)"><path fill="#1d5445" d="M 19.539062 17.070312 C 19.542969 17.148438 19.503906 17.1875 19.460938 17.222656 C 19.433594 17.242188 19.40625 17.261719 19.378906 17.28125 C 19.125 17.40625 19.027344 17.582031 19.128906 17.859375 C 19.167969 17.972656 19.253906 18.140625 19.097656 18.222656 C 18.949219 18.300781 18.902344 18.113281 18.816406 18.046875 C 18.542969 17.832031 18.546875 17.824219 18.269531 18.035156 C 18.167969 18.113281 18.074219 18.203125 17.976562 18.285156 C 17.933594 18.320312 17.886719 18.359375 17.828125 18.320312 C 17.769531 18.28125 17.78125 18.230469 17.800781 18.175781 C 17.855469 18.03125 17.902344 17.882812 17.964844 17.746094 C 18.019531 17.625 18.027344 17.542969 17.875 17.507812 C 17.859375 17.503906 17.847656 17.5 17.835938 17.492188 C 17.738281 17.445312 17.613281 17.410156 17.625 17.277344 C 17.636719 17.140625 17.777344 17.113281 17.878906 17.117188 C 18.210938 17.128906 18.335938 16.9375 18.433594 16.671875 C 18.472656 16.5625 18.488281 16.386719 18.65625 16.394531 C 18.824219 16.402344 18.851562 16.574219 18.875 16.699219 C 18.914062 16.917969 19 17.027344 19.253906 16.960938 C 19.359375 16.933594 19.492188 16.945312 19.539062 17.070312 Z M 18.710938 17.21875 C 18.464844 17.210938 18.285156 17.308594 18.304688 17.449219 C 18.320312 17.558594 18.441406 17.566406 18.523438 17.597656 C 18.585938 17.621094 18.839844 17.410156 18.835938 17.351562 C 18.828125 17.277344 18.828125 17.195312 18.710938 17.21875 Z M 18.597656 17.042969 C 18.644531 17.011719 18.773438 17.066406 18.746094 16.941406 C 18.726562 16.855469 18.710938 16.691406 18.648438 16.707031 C 18.558594 16.730469 18.542969 16.878906 18.507812 16.976562 C 18.480469 17.050781 18.542969 17.046875 18.597656 17.042969 Z M 18.921875 17.769531 C 18.890625 17.738281 18.941406 17.644531 18.84375 17.648438 C 18.804688 17.648438 18.734375 17.707031 18.738281 17.722656 C 18.753906 17.789062 18.820312 17.828125 18.882812 17.847656 C 18.933594 17.863281 18.921875 17.8125 18.921875 17.769531 Z M 18.320312 17.757812 C 18.316406 17.703125 18.28125 17.6875 18.25 17.6875 C 18.15625 17.683594 18.175781 17.777344 18.140625 17.824219 C 18.132812 17.835938 18.125 17.886719 18.167969 17.867188 C 18.226562 17.835938 18.273438 17.792969 18.320312 17.757812 Z M 18.136719 17.308594 C 18.128906 17.25 18.082031 17.265625 18.046875 17.273438 C 18.007812 17.28125 17.976562 17.304688 17.941406 17.320312 C 17.988281 17.339844 18.035156 17.367188 18.085938 17.378906 C 18.125 17.386719 18.132812 17.34375 18.136719 17.308594 Z M 19.160156 17.199219 C 19.167969 17.160156 19.148438 17.148438 19.128906 17.15625 C 19.085938 17.171875 19.023438 17.148438 19.011719 17.214844 C 19.003906 17.238281 19.023438 17.277344 19.050781 17.269531 C 19.09375 17.253906 19.128906 17.222656 19.160156 17.199219 Z M 19.160156 17.199219 " fill-opacity="1" fill-rule="nonzero"/></g><path fill="#1d5445" d="M 22.871094 11.308594 C 22.960938 11.308594 22.992188 11.371094 23 11.441406 C 23.015625 11.578125 22.972656 11.753906 23.042969 11.847656 C 23.121094 11.949219 23.300781 11.835938 23.433594 11.851562 C 23.582031 11.871094 23.628906 11.96875 23.539062 12.09375 C 23.453125 12.21875 23.34375 12.316406 23.207031 12.386719 C 23.082031 12.449219 23.039062 12.535156 23.078125 12.664062 C 23.082031 12.691406 23.085938 12.714844 23.089844 12.742188 C 23.089844 12.839844 23.144531 12.960938 23.027344 13.015625 C 22.898438 13.082031 22.851562 12.949219 22.792969 12.878906 C 22.703125 12.777344 22.621094 12.734375 22.5 12.832031 C 22.433594 12.886719 22.347656 12.925781 22.273438 12.96875 C 22.214844 13 22.152344 13.054688 22.085938 12.996094 C 22.023438 12.9375 22.066406 12.871094 22.082031 12.808594 C 22.085938 12.792969 22.09375 12.78125 22.097656 12.769531 C 22.128906 12.65625 22.253906 12.554688 22.21875 12.441406 C 22.183594 12.335938 22.023438 12.332031 21.925781 12.269531 C 21.878906 12.242188 21.832031 12.207031 21.835938 12.148438 C 21.839844 12.078125 21.890625 12.042969 21.957031 12.027344 C 22.058594 12 22.15625 11.964844 22.257812 11.960938 C 22.453125 11.960938 22.558594 11.875 22.613281 11.699219 C 22.648438 11.597656 22.707031 11.503906 22.753906 11.40625 C 22.777344 11.359375 22.804688 11.3125 22.871094 11.308594 Z M 22.847656 12.289062 C 22.8125 12.230469 22.894531 12.089844 22.726562 12.097656 C 22.5625 12.105469 22.554688 12.253906 22.523438 12.359375 C 22.5 12.4375 22.609375 12.507812 22.664062 12.5 C 22.761719 12.484375 22.863281 12.433594 22.847656 12.289062 Z M 23.203125 12.050781 C 23.144531 12.089844 23.023438 12.027344 23.03125 12.164062 C 23.035156 12.199219 23.039062 12.253906 23.097656 12.230469 C 23.167969 12.199219 23.246094 12.15625 23.273438 12.082031 C 23.292969 12.035156 23.230469 12.0625 23.203125 12.050781 Z M 22.378906 12.171875 C 22.363281 12.109375 22.316406 12.144531 22.285156 12.148438 C 22.257812 12.152344 22.203125 12.144531 22.21875 12.1875 C 22.230469 12.214844 22.285156 12.234375 22.320312 12.238281 C 22.355469 12.246094 22.371094 12.207031 22.378906 12.171875 Z M 22.433594 12.589844 C 22.390625 12.585938 22.386719 12.617188 22.375 12.636719 C 22.371094 12.644531 22.382812 12.660156 22.386719 12.667969 C 22.410156 12.65625 22.429688 12.644531 22.453125 12.632812 C 22.457031 12.628906 22.441406 12.601562 22.433594 12.589844 Z M 22.433594 12.589844 " fill-opacity="1" fill-rule="nonzero"/><g clip-path="url(#ffc37dd37b)"><path fill="#1d5445" d="M 19.128906 10.84375 C 19.125 11.050781 19.003906 11.164062 18.792969 11.160156 C 18.5625 11.152344 18.457031 11.0625 18.457031 10.875 C 18.460938 10.640625 18.617188 10.464844 18.816406 10.460938 C 18.984375 10.460938 19.128906 10.636719 19.128906 10.84375 Z M 19.128906 10.84375 " fill-opacity="1" fill-rule="nonzero"/></g><g clip-path="url(#5c939aafc5)"><path fill="#1d5445" d="M 21.519531 18.253906 C 21.691406 18.261719 21.828125 18.425781 21.824219 18.621094 C 21.816406 18.789062 21.664062 18.914062 21.472656 18.902344 C 21.308594 18.894531 21.226562 18.78125 21.230469 18.574219 C 21.234375 18.386719 21.359375 18.25 21.519531 18.253906 Z M 21.519531 18.253906 " fill-opacity="1" fill-rule="nonzero"/></g><path fill="#1d5445" d="M 24.046875 14.816406 C 23.921875 14.8125 23.84375 14.738281 23.835938 14.597656 C 23.824219 14.464844 23.992188 14.296875 24.121094 14.316406 C 24.277344 14.335938 24.363281 14.441406 24.375 14.585938 C 24.386719 14.714844 24.238281 14.816406 24.046875 14.816406 Z M 24.046875 14.816406 " fill-opacity="1" fill-rule="nonzero"/><g clip-path="url(#cf8547302c)"><path fill="#1d5445" d="M 18.136719 13.609375 C 18.125 13.699219 18.082031 13.746094 18.003906 13.746094 C 17.925781 13.746094 17.878906 13.695312 17.878906 13.621094 C 17.878906 13.542969 17.929688 13.492188 18.007812 13.492188 C 18.082031 13.496094 18.125 13.546875 18.136719 13.609375 Z M 18.136719 13.609375 " fill-opacity="1" fill-rule="nonzero"/></g><g clip-path="url(#b6ed10c2f2)"><path fill="#1d5445" d="M 17.816406 11.792969 C 17.726562 11.796875 17.667969 11.773438 17.664062 11.699219 C 17.664062 11.636719 17.714844 11.609375 17.773438 11.605469 C 17.839844 11.597656 17.902344 11.621094 17.910156 11.691406 C 17.921875 11.765625 17.859375 11.789062 17.816406 11.792969 Z M 17.816406 11.792969 " fill-opacity="1" fill-rule="nonzero"/></g><path fill="#1d5445" d="M 18.894531 15.710938 C 18.890625 15.777344 18.863281 15.824219 18.789062 15.828125 C 18.722656 15.832031 18.695312 15.785156 18.695312 15.726562 C 18.695312 15.664062 18.714844 15.609375 18.792969 15.609375 C 18.863281 15.609375 18.882812 15.65625 18.894531 15.710938 Z M 18.894531 15.710938 " fill-opacity="1" fill-rule="nonzero"/><path fill="#1d5445" d="M 22.453125 14.722656 C 22.464844 14.660156 22.503906 14.628906 22.5625 14.628906 C 22.628906 14.628906 22.6875 14.65625 22.679688 14.734375 C 22.675781 14.796875 22.621094 14.8125 22.5625 14.8125 C 22.5 14.8125 22.460938 14.785156 22.453125 14.722656 Z M 22.453125 14.722656 " fill-opacity="1" fill-rule="nonzero"/><path fill="#1d5445" d="M 24.722656 13.113281 C 24.714844 13.164062 24.6875 13.199219 24.628906 13.199219 C 24.566406 13.199219 24.523438 13.167969 24.527344 13.101562 C 24.53125 13.050781 24.574219 13.023438 24.628906 13.023438 C 24.683594 13.023438 24.71875 13.054688 24.722656 13.113281 Z M 24.722656 13.113281 " fill-opacity="1" fill-rule="nonzero"/><g clip-path="url(#7ce245ca84)"><path fill="#1d5445" d="M 20.828125 10.3125 C 20.820312 10.359375 20.792969 10.394531 20.734375 10.390625 C 20.671875 10.386719 20.632812 10.355469 20.636719 10.289062 C 20.644531 10.234375 20.683594 10.210938 20.742188 10.214844 C 20.792969 10.222656 20.828125 10.25 20.828125 10.3125 Z M 20.828125 10.3125 " fill-opacity="1" fill-rule="nonzero"/></g><g clip-path="url(#acdac85a27)"><path fill="#1d5445" d="M 25.597656 14.96875 C 25.59375 15.027344 25.566406 15.0625 25.507812 15.066406 C 25.453125 15.070312 25.417969 15.039062 25.417969 14.984375 C 25.417969 14.929688 25.449219 14.894531 25.503906 14.890625 C 25.5625 14.882812 25.589844 14.917969 25.597656 14.96875 Z M 25.597656 14.96875 " fill-opacity="1" fill-rule="nonzero"/></g><path fill="#1d5445" d="M 23.109375 16.5625 C 22.363281 16.71875 21.566406 16.550781 20.941406 16.136719 C 20.300781 15.714844 19.890625 15.023438 19.792969 14.285156 C 19.738281 13.855469 19.785156 13.441406 19.933594 13.035156 C 19.976562 12.917969 19.78125 12.867188 19.734375 12.984375 C 19.457031 13.742188 19.535156 14.605469 19.921875 15.316406 C 20.304688 16.019531 21 16.527344 21.796875 16.726562 C 22.25 16.839844 22.703125 16.847656 23.164062 16.753906 C 23.289062 16.726562 23.238281 16.535156 23.109375 16.5625 Z M 23.109375 16.5625 " fill-opacity="1" fill-rule="nonzero"/></svg>