<svg xmlns="http://www.w3.org/2000/svg" xmlns:xlink="http://www.w3.org/1999/xlink" width="40" zoomAndPan="magnify" viewBox="0 0 30 30.000001" height="40" preserveAspectRatio="xMidYMid meet" version="1.0"><defs><clipPath id="69eb40b9d7"><path d="M 2.625 2.140625 L 27.300781 2.140625 L 27.300781 26.820312 L 2.625 26.820312 Z M 2.625 2.140625 " clip-rule="nonzero"/></clipPath></defs><path fill="#ffffff" d="M 15.640625 6.964844 C 11.867188 6.964844 8.800781 10.03125 8.800781 13.804688 C 8.800781 15.042969 9.132812 16.238281 9.757812 17.285156 L 8.832031 20.625 L 12.332031 19.792969 C 13.34375 20.351562 14.476562 20.644531 15.640625 20.644531 C 19.414062 20.644531 22.480469 17.578125 22.480469 13.804688 C 22.480469 10.03125 19.414062 6.964844 15.640625 6.964844 Z M 15.640625 19.519531 C 14.601562 19.519531 13.589844 19.242188 12.707031 18.722656 L 12.511719 18.605469 L 10.421875 19.09375 L 10.972656 17.109375 L 10.835938 16.902344 C 10.246094 15.988281 9.933594 14.90625 9.933594 13.804688 C 9.933594 10.65625 12.5 8.085938 15.648438 8.085938 C 18.800781 8.085938 21.367188 10.65625 21.367188 13.804688 C 21.355469 16.964844 18.789062 19.519531 15.640625 19.519531 Z M 15.640625 19.519531 " fill-opacity="1" fill-rule="nonzero"/><path fill="#ffffff" d="M 18.894531 16.269531 C 18.839844 16.546875 18.238281 16.902344 17.851562 17.003906 C 16.898438 17.253906 15.554688 16.527344 14.226562 15.375 C 12.882812 14.210938 11.980469 12.984375 12.105469 12.007812 C 12.148438 11.621094 12.425781 10.964844 12.699219 10.882812 C 12.957031 10.800781 13.144531 10.871094 13.414062 10.964844 C 13.550781 11.113281 13.714844 11.300781 13.902344 11.507812 C 14.152344 11.789062 14.320312 12.046875 14.433594 12.222656 C 14.515625 12.371094 14.484375 12.558594 14.359375 12.671875 L 13.902344 13.078125 C 13.820312 13.148438 13.789062 13.273438 13.839844 13.367188 C 13.988281 13.667969 14.320312 14.292969 14.808594 14.71875 C 15.296875 15.144531 15.960938 15.382812 16.273438 15.488281 C 16.378906 15.519531 16.492188 15.476562 16.554688 15.382812 L 16.898438 14.875 C 16.992188 14.738281 17.179688 14.675781 17.332031 14.738281 C 17.519531 14.824219 17.800781 14.949219 18.113281 15.15625 C 18.351562 15.3125 18.550781 15.457031 18.714844 15.570312 C 18.839844 15.820312 18.945312 15.996094 18.894531 16.269531 Z M 18.894531 16.269531 " fill-opacity="1" fill-rule="nonzero"/><g clip-path="url(#69eb40b9d7)"><path fill="#ffffff" d="M 14.964844 26.820312 C 8.164062 26.820312 2.625 21.289062 2.625 14.480469 C 2.625 7.679688 8.164062 2.140625 14.964844 2.140625 C 21.761719 2.140625 27.300781 7.679688 27.300781 14.480469 C 27.300781 21.289062 21.773438 26.820312 14.964844 26.820312 Z M 14.964844 2.816406 C 8.527344 2.816406 3.300781 8.046875 3.300781 14.480469 C 3.300781 20.914062 8.527344 26.144531 14.964844 26.144531 C 21.398438 26.144531 26.625 20.914062 26.625 14.480469 C 26.625 8.046875 21.398438 2.816406 14.964844 2.816406 Z M 14.964844 2.816406 " fill-opacity="1" fill-rule="nonzero"/></g></svg>