<svg xmlns="http://www.w3.org/2000/svg" xmlns:xlink="http://www.w3.org/1999/xlink" width="40" zoomAndPan="magnify" viewBox="0 0 30 30.000001" height="40" preserveAspectRatio="xMidYMid meet" version="1.0"><defs><clipPath id="f846ee5784"><path d="M 7.785156 6.570312 L 24.699219 6.570312 L 24.699219 23.722656 L 7.785156 23.722656 Z M 7.785156 6.570312 " clip-rule="nonzero"/></clipPath><clipPath id="f376d22ac4"><path d="M 16 5.582031 L 20 5.582031 L 20 10 L 16 10 Z M 16 5.582031 " clip-rule="nonzero"/></clipPath><clipPath id="3af502121d"><path d="M 5.101562 16 L 9 16 L 9 21 L 5.101562 21 Z M 5.101562 16 " clip-rule="nonzero"/></clipPath></defs><g clip-path="url(#f846ee5784)"><path fill="#f7cd3c" d="M 24.449219 11.25 C 23.726562 12.5 23.453125 13.964844 23.683594 15.378906 C 23.757812 15.847656 23.851562 16.429688 23.898438 17.015625 C 23.949219 17.664062 23.9375 18.242188 23.863281 18.78125 C 23.667969 20.171875 23.039062 21.394531 21.941406 22.519531 C 21.164062 23.316406 20.210938 23.722656 19.105469 23.722656 C 19.078125 23.722656 19.054688 23.722656 19.027344 23.722656 C 18.140625 23.707031 17.148438 23.433594 16.082031 22.910156 C 15.234375 22.496094 14.332031 21.921875 13.40625 21.210938 C 11.882812 20.03125 10.785156 18.847656 10.707031 18.761719 L 8.589844 16.8125 C 8.355469 16.597656 8.214844 16.300781 8.199219 15.980469 C 8.183594 15.65625 8.289062 15.347656 8.5 15.109375 C 8.707031 14.867188 8.996094 14.726562 9.3125 14.707031 C 9.625 14.691406 9.925781 14.800781 10.15625 15.011719 L 12.457031 16.882812 C 12.472656 16.894531 12.488281 16.894531 12.496094 16.890625 C 12.503906 16.886719 12.515625 16.882812 12.523438 16.863281 C 12.527344 16.847656 12.523438 16.828125 12.511719 16.816406 C 12.421875 16.738281 12.214844 16.546875 11.71875 16.089844 C 11.089844 15.511719 10.042969 14.542969 8.191406 12.839844 C 7.957031 12.625 7.820312 12.328125 7.800781 12.007812 C 7.785156 11.6875 7.890625 11.375 8.101562 11.136719 C 8.3125 10.894531 8.601562 10.753906 8.914062 10.738281 C 9.230469 10.71875 9.53125 10.828125 9.765625 11.042969 L 13.199219 14.203125 C 13.066406 14.070312 12.898438 13.894531 12.671875 13.660156 C 12.039062 13.015625 10.988281 11.929688 9.183594 10.085938 C 8.726562 9.613281 8.726562 8.847656 9.183594 8.375 C 9.40625 8.148438 9.703125 8.023438 10.015625 8.023438 C 10.332031 8.023438 10.625 8.148438 10.847656 8.375 C 12.71875 10.292969 13.765625 11.371094 14.394531 12.015625 C 14.773438 12.402344 14.980469 12.613281 15.089844 12.730469 C 15.109375 12.746094 15.125 12.746094 15.136719 12.746094 C 15.148438 12.746094 15.164062 12.746094 15.183594 12.730469 C 15.203125 12.707031 15.207031 12.667969 15.1875 12.640625 L 12.101562 8.535156 C 11.910156 8.28125 11.824219 7.964844 11.863281 7.644531 C 11.90625 7.324219 12.0625 7.039062 12.3125 6.84375 C 12.5625 6.644531 12.871094 6.558594 13.183594 6.601562 C 13.496094 6.640625 13.773438 6.804688 13.964844 7.0625 L 17.238281 11.414062 C 17.660156 11.972656 18.195312 12.503906 18.703125 12.863281 C 19.285156 13.277344 19.792969 13.445312 20.171875 13.359375 C 20.546875 13.273438 20.800781 12.921875 20.929688 12.3125 C 21.097656 11.523438 21.453125 10.859375 21.992188 10.34375 C 22.445312 9.90625 22.933594 9.667969 23.261719 9.542969 C 23.652344 9.394531 24.085938 9.476562 24.390625 9.761719 C 24.566406 9.921875 24.667969 10.121094 24.695312 10.34375 C 24.726562 10.613281 24.644531 10.917969 24.449219 11.25 " fill-opacity="1" fill-rule="nonzero"/><path fill="#d19119" d="M 24.207031 11.101562 C 23.445312 12.410156 23.160156 13.945312 23.402344 15.425781 C 23.5625 16.425781 23.746094 17.558594 23.582031 18.742188 C 23.394531 20.066406 22.792969 21.234375 21.742188 22.3125 C 21.355469 22.707031 20.925781 23 20.453125 23.183594 C 20.019531 23.355469 19.542969 23.4375 19.03125 23.425781 C 18.1875 23.414062 17.238281 23.152344 16.207031 22.648438 C 15.375 22.242188 14.492188 21.679688 13.582031 20.976562 C 12.027344 19.777344 10.921875 18.570312 10.910156 18.558594 L 10.90625 18.554688 L 8.78125 16.59375 C 8.601562 16.433594 8.496094 16.207031 8.484375 15.964844 C 8.472656 15.71875 8.550781 15.484375 8.710938 15.304688 C 8.871094 15.121094 9.089844 15.015625 9.328125 15 C 9.34375 15 9.359375 15 9.375 15 C 9.597656 15 9.804688 15.082031 9.96875 15.234375 L 9.972656 15.238281 L 12.28125 17.113281 C 12.363281 17.179688 12.472656 17.203125 12.578125 17.171875 C 12.679688 17.140625 12.757812 17.0625 12.792969 16.960938 C 12.835938 16.832031 12.800781 16.6875 12.699219 16.597656 C 12.613281 16.519531 12.40625 16.328125 11.910156 15.871094 C 11.28125 15.292969 10.234375 14.324219 8.382812 12.625 C 8.207031 12.460938 8.101562 12.234375 8.089844 11.992188 C 8.074219 11.75 8.15625 11.511719 8.316406 11.332031 C 8.472656 11.148438 8.691406 11.042969 8.929688 11.03125 C 9.167969 11.015625 9.394531 11.097656 9.574219 11.261719 L 13.4375 14.820312 C 13.5 14.875 13.578125 14.898438 13.660156 14.890625 C 13.738281 14.878906 13.808594 14.832031 13.851562 14.761719 C 13.925781 14.640625 13.902344 14.484375 13.800781 14.394531 C 13.71875 14.324219 13.519531 14.121094 12.871094 13.453125 C 12.242188 12.808594 11.191406 11.722656 9.386719 9.878906 C 9.039062 9.519531 9.039062 8.941406 9.386719 8.582031 C 9.554688 8.410156 9.777344 8.316406 10.015625 8.316406 C 10.253906 8.316406 10.476562 8.410156 10.648438 8.582031 C 12.515625 10.5 13.566406 11.578125 14.191406 12.222656 C 14.570312 12.609375 14.777344 12.820312 14.890625 12.9375 C 14.953125 13.003906 15.042969 13.042969 15.136719 13.042969 C 15.230469 13.042969 15.316406 13.003906 15.382812 12.9375 C 15.507812 12.808594 15.519531 12.605469 15.414062 12.460938 L 12.328125 8.359375 C 12.179688 8.164062 12.117188 7.925781 12.148438 7.683594 C 12.179688 7.441406 12.300781 7.222656 12.488281 7.074219 C 12.675781 6.925781 12.910156 6.859375 13.148438 6.890625 C 13.382812 6.921875 13.59375 7.046875 13.738281 7.238281 L 17.011719 11.59375 C 17.449219 12.175781 18.007812 12.726562 18.542969 13.105469 C 18.925781 13.378906 19.460938 13.675781 19.972656 13.675781 C 20.058594 13.675781 20.148438 13.664062 20.234375 13.644531 C 20.472656 13.589844 20.679688 13.457031 20.839844 13.25 C 21.007812 13.035156 21.132812 12.742188 21.207031 12.375 C 21.363281 11.644531 21.691406 11.03125 22.1875 10.558594 C 22.605469 10.15625 23.054688 9.933594 23.359375 9.820312 C 23.457031 9.78125 23.554688 9.765625 23.65625 9.765625 C 23.855469 9.765625 24.050781 9.839844 24.199219 9.976562 C 24.324219 10.089844 24.394531 10.226562 24.410156 10.378906 C 24.433594 10.582031 24.363281 10.824219 24.207031 11.101562 Z M 24.695312 10.34375 C 24.667969 10.121094 24.566406 9.921875 24.390625 9.761719 C 24.085938 9.476562 23.652344 9.394531 23.261719 9.542969 C 22.933594 9.667969 22.445312 9.90625 21.992188 10.34375 C 21.453125 10.859375 21.097656 11.523438 20.929688 12.3125 C 20.800781 12.921875 20.546875 13.273438 20.171875 13.359375 C 19.792969 13.445312 19.285156 13.277344 18.703125 12.863281 C 18.195312 12.503906 17.660156 11.972656 17.238281 11.414062 L 13.964844 7.0625 C 13.773438 6.804688 13.496094 6.640625 13.183594 6.601562 C 12.871094 6.558594 12.5625 6.644531 12.3125 6.84375 C 12.0625 7.039062 11.90625 7.324219 11.863281 7.644531 C 11.824219 7.964844 11.910156 8.28125 12.101562 8.535156 L 15.1875 12.640625 C 15.207031 12.667969 15.203125 12.707031 15.183594 12.730469 C 15.164062 12.746094 15.148438 12.746094 15.136719 12.746094 C 15.125 12.746094 15.109375 12.746094 15.089844 12.730469 C 14.980469 12.613281 14.773438 12.402344 14.394531 12.015625 C 13.765625 11.371094 12.71875 10.292969 10.847656 8.375 C 10.625 8.148438 10.332031 8.023438 10.015625 8.023438 C 9.703125 8.023438 9.40625 8.148438 9.183594 8.375 C 8.726562 8.847656 8.726562 9.613281 9.183594 10.085938 C 10.988281 11.929688 12.039062 13.015625 12.671875 13.660156 C 12.898438 13.894531 13.066406 14.070312 13.199219 14.203125 L 9.765625 11.042969 C 9.53125 10.828125 9.230469 10.71875 8.914062 10.738281 C 8.601562 10.753906 8.3125 10.894531 8.101562 11.136719 C 7.890625 11.375 7.785156 11.6875 7.800781 12.007812 C 7.820312 12.328125 7.957031 12.625 8.191406 12.839844 C 10.042969 14.542969 11.089844 15.511719 11.71875 16.089844 C 12.214844 16.546875 12.421875 16.738281 12.511719 16.816406 C 12.523438 16.828125 12.527344 16.847656 12.523438 16.863281 C 12.515625 16.882812 12.503906 16.886719 12.496094 16.890625 C 12.488281 16.894531 12.472656 16.894531 12.457031 16.882812 L 10.15625 15.011719 C 9.925781 14.800781 9.625 14.691406 9.3125 14.707031 C 8.996094 14.726562 8.707031 14.867188 8.5 15.109375 C 8.289062 15.347656 8.183594 15.65625 8.199219 15.980469 C 8.214844 16.300781 8.355469 16.597656 8.589844 16.8125 L 10.707031 18.761719 C 10.785156 18.847656 11.882812 20.03125 13.40625 21.210938 C 14.332031 21.921875 15.234375 22.496094 16.082031 22.910156 C 17.148438 23.433594 18.140625 23.707031 19.027344 23.722656 C 19.054688 23.722656 19.078125 23.722656 19.105469 23.722656 C 20.210938 23.722656 21.164062 23.316406 21.941406 22.519531 C 23.039062 21.394531 23.667969 20.171875 23.863281 18.78125 C 23.9375 18.242188 23.949219 17.664062 23.898438 17.015625 C 23.851562 16.429688 23.757812 15.847656 23.683594 15.378906 C 23.453125 13.964844 23.726562 12.5 24.449219 11.25 C 24.644531 10.917969 24.726562 10.613281 24.695312 10.34375 " fill-opacity="1" fill-rule="nonzero"/></g><g clip-path="url(#f376d22ac4)"><path fill="#ff014f" d="M 19.753906 9.53125 C 19.664062 9.53125 19.585938 9.460938 19.578125 9.367188 C 19.53125 8.921875 19.414062 8.496094 19.226562 8.101562 C 19.046875 7.714844 18.804688 7.367188 18.507812 7.0625 C 18.214844 6.757812 17.871094 6.511719 17.496094 6.324219 C 17.109375 6.132812 16.695312 6.015625 16.261719 5.96875 C 16.164062 5.957031 16.09375 5.867188 16.105469 5.765625 C 16.113281 5.664062 16.203125 5.59375 16.300781 5.601562 C 16.773438 5.652344 17.226562 5.785156 17.652344 5.996094 C 18.0625 6.199219 18.4375 6.46875 18.761719 6.804688 C 19.085938 7.136719 19.351562 7.519531 19.550781 7.941406 C 19.753906 8.378906 19.882812 8.84375 19.929688 9.328125 C 19.941406 9.429688 19.871094 9.519531 19.773438 9.527344 C 19.765625 9.53125 19.761719 9.53125 19.753906 9.53125 " fill-opacity="1" fill-rule="nonzero"/></g><path fill="#ff014f" d="M 18.300781 9.667969 C 18.210938 9.667969 18.132812 9.597656 18.121094 9.503906 C 18.0625 8.96875 17.839844 8.488281 17.480469 8.117188 C 17.117188 7.746094 16.652344 7.519531 16.128906 7.457031 C 16.03125 7.445312 15.960938 7.355469 15.972656 7.253906 C 15.980469 7.15625 16.070312 7.082031 16.167969 7.09375 C 16.472656 7.128906 16.761719 7.214844 17.027344 7.347656 C 17.289062 7.476562 17.527344 7.648438 17.730469 7.859375 C 17.9375 8.070312 18.105469 8.3125 18.230469 8.582031 C 18.359375 8.855469 18.445312 9.152344 18.476562 9.464844 C 18.488281 9.5625 18.417969 9.65625 18.320312 9.667969 C 18.3125 9.667969 18.308594 9.667969 18.300781 9.667969 " fill-opacity="1" fill-rule="nonzero"/><g clip-path="url(#3af502121d)"><path fill="#ff014f" d="M 8.761719 20.804688 C 8.757812 20.804688 8.75 20.804688 8.746094 20.804688 C 8.273438 20.753906 7.816406 20.621094 7.394531 20.410156 C 6.980469 20.207031 6.609375 19.9375 6.285156 19.605469 C 5.960938 19.269531 5.695312 18.886719 5.496094 18.464844 C 5.292969 18.03125 5.164062 17.5625 5.113281 17.078125 C 5.101562 16.976562 5.175781 16.886719 5.273438 16.878906 C 5.371094 16.867188 5.457031 16.941406 5.46875 17.039062 C 5.515625 17.484375 5.632812 17.910156 5.816406 18.304688 C 6 18.691406 6.242188 19.042969 6.535156 19.34375 C 6.832031 19.648438 7.171875 19.894531 7.550781 20.082031 C 7.9375 20.273438 8.351562 20.394531 8.78125 20.4375 C 8.878906 20.449219 8.953125 20.539062 8.941406 20.640625 C 8.929688 20.734375 8.855469 20.804688 8.761719 20.804688 " fill-opacity="1" fill-rule="nonzero"/></g><path fill="#ff014f" d="M 8.898438 19.3125 C 8.890625 19.3125 8.882812 19.3125 8.875 19.3125 C 8.574219 19.277344 8.285156 19.191406 8.015625 19.058594 C 7.753906 18.929688 7.519531 18.757812 7.3125 18.546875 C 7.109375 18.335938 6.941406 18.09375 6.8125 17.824219 C 6.683594 17.550781 6.601562 17.253906 6.566406 16.945312 C 6.554688 16.84375 6.625 16.753906 6.726562 16.742188 C 6.824219 16.730469 6.910156 16.800781 6.921875 16.902344 C 6.980469 17.4375 7.203125 17.917969 7.566406 18.289062 C 7.925781 18.660156 8.394531 18.886719 8.917969 18.949219 C 9.015625 18.960938 9.085938 19.050781 9.074219 19.152344 C 9.0625 19.246094 8.988281 19.3125 8.898438 19.3125 " fill-opacity="1" fill-rule="nonzero"/></svg>